<svg xmlns="http://www.w3.org/2000/svg" viewBox="-126.63 -198.13 87.87 277.20" preserveAspectRatio="xMidYMid meet"><rect x="-126.63" y="-198.13" width="87.87" height="277.20" fill="#fafafa"/><polygon points="-68.74,-23.82 -58.74,-23.82 -58.74,-63.82 -68.74,-63.82" fill="none" stroke="#222" stroke-width="3.326" stroke-linejoin="round"/><polygon points="-68.74,16.18 -58.74,16.18 -58.74,-23.82 -68.74,-23.82" fill="none" stroke="#222" stroke-width="3.326" stroke-linejoin="round"/><polygon points="-68.74,-63.82 -58.74,-63.82 -58.74,-103.82 -68.74,-103.82" fill="none" stroke="#222" stroke-width="3.326" stroke-linejoin="round"/><polygon points="-68.74,-103.82 -69.39,-113.72 -71.32,-123.45 -74.51,-132.84 -78.90,-141.74 -70.24,-146.74 -65.27,-136.67 -61.66,-126.04 -59.47,-115.03 -58.74,-103.82" fill="none" stroke="#222" stroke-width="3.326" stroke-linejoin="round"/><polygon points="-78.90,-141.74 -84.41,-149.99 -90.95,-157.44 -98.40,-163.98 -106.65,-169.49 -101.65,-178.15 -92.32,-171.92 -83.88,-164.51 -76.47,-156.07 -70.24,-146.74" fill="none" stroke="#222" stroke-width="3.326" stroke-linejoin="round"/><polygon points="-78.90,54.09 -74.51,45.19 -71.32,35.80 -69.39,26.07 -68.74,16.18 -58.74,16.18 -59.47,27.38 -61.66,38.39 -65.27,49.02 -70.24,59.09" fill="none" stroke="#222" stroke-width="3.326" stroke-linejoin="round"/></svg>