<svg xmlns="http://www.w3.org/2000/svg" viewBox="-140.35 -353.01 245.92 525.92" preserveAspectRatio="xMidYMid meet"><rect x="-140.35" y="-353.01" width="245.92" height="525.92" fill="#fafafa"/><polygon points="-12.39,-90.05 -12.26,-85.64 -11.88,-81.24 -11.24,-76.88 -10.35,-72.56 -9.21,-68.30 -7.82,-64.11 -6.19,-60.01 -4.33,-56.02 -2.23,-52.13 -10.89,-47.13 -13.26,-51.53 -15.37,-56.05 -17.57,-60.69 -19.41,-56.05 -21.52,-51.53 -23.89,-47.13 -32.55,-52.13 -30.46,-56.02 -28.59,-60.01 -26.97,-64.11 -25.58,-68.30 -24.44,-72.56 -23.54,-76.88 -22.91,-81.24 -22.52,-85.64 -22.39,-90.05" fill="none" stroke="#222" stroke-width="6.311" stroke-linejoin="round"/><polygon points="-60.31,-24.38 -52.06,-29.89 -44.60,-36.43 -38.06,-43.89 -32.55,-52.13 -23.89,-47.13 -30.13,-37.80 -37.53,-29.36 -45.97,-21.95 -55.31,-15.72" fill="none" stroke="#222" stroke-width="6.311" stroke-linejoin="round"/><polygon points="-55.31,-15.72 -63.55,-10.21 -71.01,-3.67 -77.55,3.79 -83.06,12.04 -91.72,7.04 -85.49,-2.30 -78.08,-10.74 -69.64,-18.14 -60.31,-24.38" fill="none" stroke="#222" stroke-width="6.311" stroke-linejoin="round"/><polygon points="-83.06,12.04 -87.45,20.93 -90.64,30.33 -92.57,40.06 -93.22,49.95 -103.22,49.95 -102.49,38.75 -100.30,27.74 -96.69,17.11 -91.72,7.04" fill="none" stroke="#222" stroke-width="6.311" stroke-linejoin="round"/><polygon points="-93.22,49.95 -92.57,59.85 -90.64,69.58 -87.45,78.97 -83.06,87.87 -91.72,92.87 -96.69,82.80 -100.30,72.17 -102.49,61.16 -103.22,49.95" fill="none" stroke="#222" stroke-width="6.311" stroke-linejoin="round"/><polygon points="-83.06,87.87 -77.55,96.11 -71.01,103.57 -63.55,110.11 -55.31,115.62 -60.31,124.28 -69.64,118.05 -78.08,110.64 -85.49,102.20 -91.72,92.87" fill="none" stroke="#222" stroke-width="6.311" stroke-linejoin="round"/><polygon points="-55.31,115.62 -46.41,120.01 -37.02,123.20 -27.29,125.13 -17.39,125.78 -17.39,135.78 -28.60,135.05 -39.61,132.86 -50.24,129.25 -60.31,124.28" fill="none" stroke="#222" stroke-width="6.311" stroke-linejoin="round"/><polygon points="-17.39,125.78 -7.49,125.13 2.23,123.20 11.63,120.01 20.52,115.62 25.52,124.28 15.45,129.25 4.82,132.86 -6.19,135.05 -17.39,135.78" fill="none" stroke="#222" stroke-width="6.311" stroke-linejoin="round"/><polygon points="20.52,115.62 28.77,110.11 36.23,103.57 42.77,96.11 48.28,87.87 56.94,92.87 50.70,102.20 43.30,110.64 34.86,118.05 25.52,124.28" fill="none" stroke="#222" stroke-width="6.311" stroke-linejoin="round"/><polygon points="48.28,87.87 52.66,78.97 55.85,69.58 57.79,59.85 58.44,49.95 68.44,49.95 67.70,61.16 65.51,72.17 61.90,82.80 56.94,92.87" fill="none" stroke="#222" stroke-width="6.311" stroke-linejoin="round"/><polygon points="58.44,49.95 57.79,40.06 55.85,30.33 52.66,20.93 48.28,12.04 56.94,7.04 61.90,17.11 65.51,27.74 67.70,38.75 68.44,49.95" fill="none" stroke="#222" stroke-width="6.311" stroke-linejoin="round"/><polygon points="48.28,12.04 42.77,3.79 36.23,-3.67 28.77,-10.21 20.52,-15.72 25.52,-24.38 34.86,-18.14 43.30,-10.74 50.70,-2.30 56.94,7.04" fill="none" stroke="#222" stroke-width="6.311" stroke-linejoin="round"/><polygon points="-2.23,-52.13 3.28,-43.89 9.82,-36.43 17.27,-29.89 25.52,-24.38 20.52,-15.72 11.19,-21.95 2.75,-29.36 -4.66,-37.80 -10.89,-47.13" fill="none" stroke="#222" stroke-width="6.311" stroke-linejoin="round"/><polygon points="-22.39,-90.05 -22.52,-94.46 -22.91,-98.85 -23.54,-103.21 -24.44,-107.53 -25.58,-111.80 -26.97,-115.98 -28.59,-120.08 -30.46,-124.08 -32.55,-127.96 -23.89,-132.96 -21.52,-128.57 -19.41,-124.04 -17.22,-119.40 -15.37,-124.04 -13.26,-128.57 -10.89,-132.96 -2.23,-127.96 -4.33,-124.08 -6.19,-120.08 -7.82,-115.98 -9.21,-111.80 -10.35,-107.53 -11.24,-103.21 -11.88,-98.85 -12.26,-94.46 -12.39,-90.05" fill="none" stroke="#222" stroke-width="6.311" stroke-linejoin="round"/><polygon points="-32.55,-127.96 -38.06,-136.21 -44.60,-143.67 -52.06,-150.21 -60.31,-155.72 -55.31,-164.38 -45.97,-158.14 -37.53,-150.74 -30.13,-142.30 -23.89,-132.96" fill="none" stroke="#222" stroke-width="6.311" stroke-linejoin="round"/><polygon points="-83.06,-192.13 -77.55,-183.89 -71.01,-176.43 -63.55,-169.89 -55.31,-164.38 -60.31,-155.72 -69.64,-161.95 -78.08,-169.36 -85.49,-177.80 -91.72,-187.13" fill="none" stroke="#222" stroke-width="6.311" stroke-linejoin="round"/><polygon points="-93.22,-230.05 -92.57,-220.15 -90.64,-210.42 -87.45,-201.03 -83.06,-192.13 -91.72,-187.13 -96.69,-197.20 -100.30,-207.83 -102.49,-218.84 -103.22,-230.05" fill="none" stroke="#222" stroke-width="6.311" stroke-linejoin="round"/><polygon points="-83.06,-267.96 -87.45,-259.07 -90.64,-249.67 -92.57,-239.94 -93.22,-230.05 -103.22,-230.05 -102.49,-241.25 -100.30,-252.26 -96.69,-262.89 -91.72,-272.96" fill="none" stroke="#222" stroke-width="6.311" stroke-linejoin="round"/><polygon points="-55.31,-295.72 -63.55,-290.21 -71.01,-283.67 -77.55,-276.21 -83.06,-267.96 -91.72,-272.96 -85.49,-282.30 -78.08,-290.74 -69.64,-298.14 -60.31,-304.38" fill="none" stroke="#222" stroke-width="6.311" stroke-linejoin="round"/><polygon points="25.52,-155.72 17.27,-150.21 9.82,-143.67 3.28,-136.21 -2.23,-127.96 -10.89,-132.96 -4.66,-142.30 2.75,-150.74 11.19,-158.14 20.52,-164.38" fill="none" stroke="#222" stroke-width="6.311" stroke-linejoin="round"/><polygon points="20.52,-164.38 28.77,-169.89 36.23,-176.43 42.77,-183.89 48.28,-192.13 56.94,-187.13 50.70,-177.80 43.30,-169.36 34.86,-161.95 25.52,-155.72" fill="none" stroke="#222" stroke-width="6.311" stroke-linejoin="round"/><polygon points="48.28,-192.13 52.66,-201.03 55.85,-210.42 57.79,-220.15 58.44,-230.05 68.44,-230.05 67.70,-218.84 65.51,-207.83 61.90,-197.20 56.94,-187.13" fill="none" stroke="#222" stroke-width="6.311" stroke-linejoin="round"/><polygon points="58.44,-230.05 57.79,-239.94 55.85,-249.67 52.66,-259.07 48.28,-267.96 56.94,-272.96 61.90,-262.89 65.51,-252.26 67.70,-241.25 68.44,-230.05" fill="none" stroke="#222" stroke-width="6.311" stroke-linejoin="round"/><polygon points="48.28,-267.96 42.77,-276.21 36.23,-283.67 28.77,-290.21 20.52,-295.72 25.52,-304.38 34.86,-298.14 43.30,-290.74 50.70,-282.30 56.94,-272.96" fill="none" stroke="#222" stroke-width="6.311" stroke-linejoin="round"/><polygon points="20.52,-295.72 11.63,-300.10 2.23,-303.29 -7.49,-305.23 -17.39,-305.88 -17.39,-315.88 -6.19,-315.14 4.82,-312.95 15.45,-309.34 25.52,-304.38" fill="none" stroke="#222" stroke-width="6.311" stroke-linejoin="round"/><polygon points="-17.39,-305.88 -27.29,-305.23 -37.02,-303.29 -46.41,-300.10 -55.31,-295.72 -60.31,-304.38 -50.24,-309.34 -39.61,-312.95 -28.60,-315.14 -17.39,-315.88" fill="none" stroke="#222" stroke-width="6.311" stroke-linejoin="round"/></svg>