<svg xmlns="http://www.w3.org/2000/svg" viewBox="-254.73 -213.99 220.32 340.32" preserveAspectRatio="xMidYMid meet"><rect x="-254.73" y="-213.99" width="220.32" height="340.32" fill="#fafafa"/><polygon points="-78.90,-141.74 -84.41,-149.99 -90.95,-157.44 -98.40,-163.98 -106.65,-169.49 -101.65,-178.15 -92.32,-171.92 -83.88,-164.51 -76.47,-156.07 -70.24,-146.74" fill="none" stroke="#222" stroke-width="4.084" stroke-linejoin="round"/><polygon points="-144.57,-179.65 -154.46,-179.00 -164.19,-177.07 -173.58,-173.88 -182.48,-169.49 -187.48,-178.15 -177.41,-183.12 -166.78,-186.73 -155.77,-188.92 -144.57,-189.65" fill="none" stroke="#222" stroke-width="4.084" stroke-linejoin="round"/><polygon points="-78.90,54.09 -74.51,45.19 -71.32,35.80 -69.39,26.07 -68.74,16.18 -58.74,16.18 -59.47,27.38 -61.66,38.39 -65.27,49.02 -70.24,59.09" fill="none" stroke="#222" stroke-width="4.084" stroke-linejoin="round"/><polygon points="-230.39,16.18 -220.39,16.18 -220.39,-23.82 -230.39,-23.82" fill="none" stroke="#222" stroke-width="4.084" stroke-linejoin="round"/><polygon points="-68.74,-23.82 -58.74,-23.82 -58.74,-63.82 -68.74,-63.82" fill="none" stroke="#222" stroke-width="4.084" stroke-linejoin="round"/><polygon points="-68.74,16.18 -58.74,16.18 -58.74,-23.82 -68.74,-23.82" fill="none" stroke="#222" stroke-width="4.084" stroke-linejoin="round"/><polygon points="-68.74,-103.82 -69.39,-113.72 -71.32,-123.45 -74.51,-132.84 -78.90,-141.74 -70.24,-146.74 -65.27,-136.67 -61.66,-126.04 -59.47,-115.03 -58.74,-103.82" fill="none" stroke="#222" stroke-width="4.084" stroke-linejoin="round"/><polygon points="-182.48,-169.49 -190.73,-163.98 -198.18,-157.44 -204.72,-149.99 -210.24,-141.74 -218.90,-146.74 -212.66,-156.07 -205.26,-164.51 -196.82,-171.92 -187.48,-178.15" fill="none" stroke="#222" stroke-width="4.084" stroke-linejoin="round"/><polygon points="-106.65,81.85 -98.40,76.34 -90.95,69.80 -84.41,62.34 -78.90,54.09 -70.24,59.09 -76.47,68.43 -83.88,76.87 -92.32,84.27 -101.65,90.51" fill="none" stroke="#222" stroke-width="4.084" stroke-linejoin="round"/><polygon points="-106.65,-169.49 -115.55,-173.88 -124.94,-177.07 -134.67,-179.00 -144.57,-179.65 -144.57,-189.65 -133.36,-188.92 -122.35,-186.73 -111.72,-183.12 -101.65,-178.15" fill="none" stroke="#222" stroke-width="4.084" stroke-linejoin="round"/><polygon points="-182.48,81.85 -173.58,86.23 -164.19,89.42 -154.46,91.36 -144.57,92.01 -144.57,102.01 -155.77,101.27 -166.78,99.08 -177.41,95.47 -187.48,90.51" fill="none" stroke="#222" stroke-width="4.084" stroke-linejoin="round"/><polygon points="-210.24,54.09 -204.72,62.34 -198.18,69.80 -190.73,76.34 -182.48,81.85 -187.48,90.51 -196.82,84.27 -205.26,76.87 -212.66,68.43 -218.90,59.09" fill="none" stroke="#222" stroke-width="4.084" stroke-linejoin="round"/><polygon points="-144.57,92.01 -134.67,91.36 -124.94,89.42 -115.55,86.23 -106.65,81.85 -101.65,90.51 -111.72,95.47 -122.35,99.08 -133.36,101.27 -144.57,102.01" fill="none" stroke="#222" stroke-width="4.084" stroke-linejoin="round"/><polygon points="-220.39,16.18 -219.75,26.07 -217.81,35.80 -214.62,45.19 -210.24,54.09 -218.90,59.09 -223.86,49.02 -227.47,38.39 -229.66,27.38 -230.39,16.18" fill="none" stroke="#222" stroke-width="4.084" stroke-linejoin="round"/><polygon points="-58.74,-103.82 -68.74,-103.82 -68.74,-63.82 -58.74,-63.82" fill="none" stroke="#222" stroke-width="4.084" stroke-linejoin="round"/><polygon points="-220.39,-63.82 -230.39,-63.82 -230.39,-23.82 -220.39,-23.82" fill="none" stroke="#222" stroke-width="4.084" stroke-linejoin="round"/><polygon points="-230.39,-63.82 -220.39,-63.82 -220.39,-103.82 -230.39,-103.82" fill="none" stroke="#222" stroke-width="4.084" stroke-linejoin="round"/><polygon points="-210.24,-141.74 -214.62,-132.84 -217.81,-123.45 -219.75,-113.72 -220.39,-103.82 -230.39,-103.82 -229.66,-115.03 -227.47,-126.04 -223.86,-136.67 -218.90,-146.74" fill="none" stroke="#222" stroke-width="4.084" stroke-linejoin="round"/></svg>