<svg xmlns="http://www.w3.org/2000/svg" viewBox="-232.12 -287.12 407.58 525.92" preserveAspectRatio="xMidYMid meet"><rect x="-232.12" y="-287.12" width="407.58" height="525.92" fill="#fafafa"/><polygon points="-33.33,-4.16 -23.33,-4.16 -23.33,-21.27 -8.51,-29.83 -13.51,-38.49 -23.33,-32.82 -23.33,-44.16 -33.33,-44.16 -33.33,-27.04 -48.15,-18.49 -43.15,-9.83 -33.33,-15.50" fill="none" stroke="#222" stroke-width="6.311" stroke-linejoin="round"/><polygon points="55.77,-78.49 60.77,-69.83 95.41,-89.83 90.41,-98.49" fill="none" stroke="#222" stroke-width="6.311" stroke-linejoin="round"/><polygon points="90.41,-98.49 98.66,-104.00 106.12,-110.54 112.66,-117.99 118.17,-126.24 126.83,-121.24 120.59,-111.91 113.19,-103.47 104.75,-96.06 95.41,-89.83" fill="none" stroke="#222" stroke-width="6.311" stroke-linejoin="round"/><polygon points="118.17,-126.24 122.55,-135.14 125.74,-144.53 127.68,-154.26 128.33,-164.16 138.33,-164.16 137.59,-152.95 135.40,-141.94 131.79,-131.31 126.83,-121.24" fill="none" stroke="#222" stroke-width="6.311" stroke-linejoin="round"/><polygon points="128.33,-164.16 127.68,-174.05 125.74,-183.78 122.55,-193.17 118.17,-202.07 126.83,-207.07 131.79,-197.00 135.40,-186.37 137.59,-175.36 138.33,-164.16" fill="none" stroke="#222" stroke-width="6.311" stroke-linejoin="round"/><polygon points="118.17,-202.07 112.66,-210.32 106.12,-217.77 98.66,-224.31 90.41,-229.83 95.41,-238.49 104.75,-232.25 113.19,-224.85 120.59,-216.40 126.83,-207.07" fill="none" stroke="#222" stroke-width="6.311" stroke-linejoin="round"/><polygon points="90.41,-229.83 81.52,-234.21 72.12,-237.40 62.39,-239.34 52.50,-239.98 52.50,-249.98 63.70,-249.25 74.71,-247.06 85.34,-243.45 95.41,-238.49" fill="none" stroke="#222" stroke-width="6.311" stroke-linejoin="round"/><polygon points="52.50,-239.98 42.60,-239.34 32.87,-237.40 23.48,-234.21 14.58,-229.83 9.58,-238.49 19.65,-243.45 30.28,-247.06 41.29,-249.25 52.50,-249.98" fill="none" stroke="#222" stroke-width="6.311" stroke-linejoin="round"/><polygon points="14.58,-229.83 6.33,-224.31 -1.12,-217.77 -7.66,-210.32 -13.17,-202.07 -21.83,-207.07 -15.60,-216.40 -8.19,-224.85 0.25,-232.25 9.58,-238.49" fill="none" stroke="#222" stroke-width="6.311" stroke-linejoin="round"/><polygon points="-13.17,-202.07 -17.56,-193.17 -20.75,-183.78 -22.68,-174.05 -23.33,-164.16 -33.33,-164.16 -32.60,-175.36 -30.41,-186.37 -26.80,-197.00 -21.83,-207.07" fill="none" stroke="#222" stroke-width="6.311" stroke-linejoin="round"/><polygon points="-23.33,-164.16 -33.33,-164.16 -33.33,-124.16 -23.33,-124.16" fill="none" stroke="#222" stroke-width="6.311" stroke-linejoin="round"/><polygon points="-23.33,-124.16 -33.33,-124.16 -33.33,-84.16 -23.33,-84.16" fill="none" stroke="#222" stroke-width="6.311" stroke-linejoin="round"/><polygon points="60.77,-69.83 55.77,-78.49 21.13,-58.49 26.13,-49.83" fill="none" stroke="#222" stroke-width="6.311" stroke-linejoin="round"/><polygon points="26.13,-49.83 21.13,-58.49 -13.51,-38.49 -8.51,-29.83" fill="none" stroke="#222" stroke-width="6.311" stroke-linejoin="round"/><polygon points="-23.33,-84.16 -33.33,-84.16 -33.33,-44.16 -23.33,-44.16" fill="none" stroke="#222" stroke-width="6.311" stroke-linejoin="round"/><polygon points="-43.15,-9.83 -48.15,-18.49 -82.79,1.51 -77.79,10.17" fill="none" stroke="#222" stroke-width="6.311" stroke-linejoin="round"/><polygon points="-77.79,10.17 -82.79,1.51 -117.44,21.51 -112.44,30.17" fill="none" stroke="#222" stroke-width="6.311" stroke-linejoin="round"/><polygon points="-112.44,30.17 -117.44,21.51 -152.08,41.51 -147.08,50.17" fill="none" stroke="#222" stroke-width="6.311" stroke-linejoin="round"/><polygon points="-33.33,35.84 -23.33,35.84 -23.33,-4.16 -33.33,-4.16" fill="none" stroke="#222" stroke-width="6.311" stroke-linejoin="round"/><polygon points="-33.33,75.84 -23.33,75.84 -23.33,35.84 -33.33,35.84" fill="none" stroke="#222" stroke-width="6.311" stroke-linejoin="round"/><polygon points="-33.33,115.84 -23.33,115.84 -23.33,75.84 -33.33,75.84" fill="none" stroke="#222" stroke-width="6.311" stroke-linejoin="round"/><polygon points="-147.08,50.17 -155.32,55.69 -162.78,62.23 -169.32,69.68 -174.83,77.93 -183.49,72.93 -177.25,63.60 -169.85,55.15 -161.41,47.75 -152.08,41.51" fill="none" stroke="#222" stroke-width="6.311" stroke-linejoin="round"/><polygon points="-174.83,77.93 -179.22,86.83 -182.41,96.22 -184.34,105.95 -184.99,115.84 -194.99,115.84 -194.26,104.64 -192.07,93.63 -188.46,83.00 -183.49,72.93" fill="none" stroke="#222" stroke-width="6.311" stroke-linejoin="round"/><polygon points="-184.99,115.84 -184.34,125.74 -182.41,135.47 -179.22,144.86 -174.83,153.76 -183.49,158.76 -188.46,148.69 -192.07,138.06 -194.26,127.05 -194.99,115.84" fill="none" stroke="#222" stroke-width="6.311" stroke-linejoin="round"/><polygon points="-174.83,153.76 -169.32,162.01 -162.78,169.46 -155.32,176.00 -147.08,181.51 -152.08,190.17 -161.41,183.94 -169.85,176.53 -177.25,168.09 -183.49,158.76" fill="none" stroke="#222" stroke-width="6.311" stroke-linejoin="round"/><polygon points="-147.08,181.51 -138.18,185.90 -128.79,189.09 -119.06,191.02 -109.16,191.67 -109.16,201.67 -120.36,200.94 -131.38,198.75 -142.01,195.14 -152.08,190.17" fill="none" stroke="#222" stroke-width="6.311" stroke-linejoin="round"/><polygon points="-109.16,191.67 -99.26,191.02 -89.54,189.09 -80.14,185.90 -71.25,181.51 -66.25,190.17 -76.32,195.14 -86.95,198.75 -97.96,200.94 -109.16,201.67" fill="none" stroke="#222" stroke-width="6.311" stroke-linejoin="round"/><polygon points="-71.25,181.51 -63.00,176.00 -55.54,169.46 -49.00,162.01 -43.49,153.76 -34.83,158.76 -41.07,168.09 -48.47,176.53 -56.91,183.94 -66.25,190.17" fill="none" stroke="#222" stroke-width="6.311" stroke-linejoin="round"/><polygon points="-43.49,153.76 -39.10,144.86 -35.92,135.47 -33.98,125.74 -33.33,115.84 -23.33,115.84 -24.07,127.05 -26.26,138.06 -29.87,148.69 -34.83,158.76" fill="none" stroke="#222" stroke-width="6.311" stroke-linejoin="round"/></svg>