<svg xmlns="http://www.w3.org/2000/svg" viewBox="-334.08 -236.27 317.76 411.09" preserveAspectRatio="xMidYMid meet"><rect x="-334.08" y="-236.27" width="317.76" height="411.09" fill="#fafafa"/><polygon points="-144.86,-11.95 -134.86,-11.95 -134.86,-51.95 -144.86,-51.95" fill="none" stroke="#222" stroke-width="4.933" stroke-linejoin="round"/><polygon points="-134.86,-11.95 -144.86,-11.95 -144.86,28.05 -134.86,28.05" fill="none" stroke="#222" stroke-width="4.933" stroke-linejoin="round"/><polygon points="-134.86,68.05 -134.22,77.95 -132.28,87.68 -129.09,97.07 -124.71,105.97 -133.37,110.97 -138.33,100.90 -141.94,90.27 -144.13,79.26 -144.86,68.05" fill="none" stroke="#222" stroke-width="4.933" stroke-linejoin="round"/><polygon points="-113.37,105.97 -111.27,102.09 -109.41,98.09 -107.78,93.99 -106.39,89.80 -105.25,85.54 -104.36,81.22 -103.72,76.86 -103.34,72.46 -103.21,68.05 -93.21,68.05 -93.35,73.04 -93.79,78.02 -94.21,83.13 -90.29,80.04 -86.20,77.17 -81.95,74.55 -76.95,83.21 -80.70,85.53 -84.32,88.06 -87.78,90.79 -91.07,93.73 -94.19,96.84 -97.12,100.14 -99.86,103.60 -102.39,107.21 -104.71,110.97" fill="none" stroke="#222" stroke-width="4.933" stroke-linejoin="round"/><polygon points="-124.71,105.97 -133.37,110.97 -124.81,125.79 -133.37,140.61 -124.71,145.61 -119.04,135.79 -113.37,145.61 -104.71,140.61 -113.26,125.79 -104.71,110.97 -113.37,105.97 -119.04,115.79" fill="none" stroke="#222" stroke-width="4.933" stroke-linejoin="round"/><polygon points="-103.21,28.05 -93.21,28.05 -93.21,-11.95 -103.21,-11.95" fill="none" stroke="#222" stroke-width="4.933" stroke-linejoin="round"/><polygon points="-103.21,-11.95 -93.21,-11.95 -93.21,-51.95 -103.21,-51.95" fill="none" stroke="#222" stroke-width="4.933" stroke-linejoin="round"/><polygon points="-103.21,-51.95 -103.86,-61.84 -105.79,-71.57 -108.98,-80.97 -113.37,-89.86 -104.71,-94.86 -99.74,-84.79 -96.13,-74.16 -93.94,-63.15 -93.21,-51.95" fill="none" stroke="#222" stroke-width="4.933" stroke-linejoin="round"/><polygon points="-124.71,-89.86 -129.09,-80.97 -132.28,-71.57 -134.22,-61.84 -134.86,-51.95 -144.86,-51.95 -144.13,-63.15 -141.94,-74.16 -138.33,-84.79 -133.37,-94.86" fill="none" stroke="#222" stroke-width="4.933" stroke-linejoin="round"/><polygon points="-113.37,-89.86 -104.71,-94.86 -113.26,-109.68 -104.71,-124.50 -113.37,-129.50 -119.04,-119.68 -124.71,-129.50 -133.37,-124.50 -124.81,-109.68 -133.37,-94.86 -124.71,-89.86 -119.04,-99.68" fill="none" stroke="#222" stroke-width="4.933" stroke-linejoin="round"/><polygon points="-133.37,-124.50 -124.71,-129.50 -144.71,-164.14 -153.37,-159.14" fill="none" stroke="#222" stroke-width="4.933" stroke-linejoin="round"/><polygon points="-153.37,-159.14 -158.88,-167.39 -165.42,-174.85 -172.87,-181.39 -181.12,-186.90 -176.12,-195.56 -166.79,-189.32 -158.35,-181.92 -150.94,-173.48 -144.71,-164.14" fill="none" stroke="#222" stroke-width="4.933" stroke-linejoin="round"/><polygon points="-181.12,-186.90 -190.02,-191.29 -199.41,-194.47 -209.14,-196.41 -219.04,-197.06 -219.04,-207.06 -207.83,-206.32 -196.82,-204.13 -186.19,-200.52 -176.12,-195.56" fill="none" stroke="#222" stroke-width="4.933" stroke-linejoin="round"/><polygon points="-219.04,-197.06 -228.93,-196.41 -238.66,-194.47 -248.05,-191.29 -256.95,-186.90 -261.95,-195.56 -251.88,-200.52 -241.25,-204.13 -230.24,-206.32 -219.04,-207.06" fill="none" stroke="#222" stroke-width="4.933" stroke-linejoin="round"/><polygon points="-256.95,-186.90 -265.20,-181.39 -272.66,-174.85 -279.20,-167.39 -284.71,-159.14 -293.37,-164.14 -287.13,-173.48 -279.73,-181.92 -271.29,-189.32 -261.95,-195.56" fill="none" stroke="#222" stroke-width="4.933" stroke-linejoin="round"/><polygon points="-284.71,-159.14 -289.09,-150.25 -292.28,-140.86 -294.22,-131.13 -294.86,-121.23 -304.86,-121.23 -304.13,-132.43 -301.94,-143.44 -298.33,-154.07 -293.37,-164.14" fill="none" stroke="#222" stroke-width="4.933" stroke-linejoin="round"/><polygon points="-294.86,-121.23 -304.86,-121.23 -304.86,-81.23 -294.86,-81.23" fill="none" stroke="#222" stroke-width="4.933" stroke-linejoin="round"/><polygon points="-294.86,-81.23 -304.86,-81.23 -304.86,-41.23 -294.86,-41.23" fill="none" stroke="#222" stroke-width="4.933" stroke-linejoin="round"/><polygon points="-294.86,-41.23 -304.86,-41.23 -304.86,-1.23 -294.86,-1.23" fill="none" stroke="#222" stroke-width="4.933" stroke-linejoin="round"/><polygon points="-144.86,68.05 -134.86,68.05 -134.86,28.05 -144.86,28.05" fill="none" stroke="#222" stroke-width="4.933" stroke-linejoin="round"/><polygon points="-103.21,68.05 -93.21,68.05 -93.21,28.05 -103.21,28.05" fill="none" stroke="#222" stroke-width="4.933" stroke-linejoin="round"/><polygon points="-81.95,74.55 -73.70,69.04 -66.25,62.50 -59.71,55.04 -54.19,46.80 -45.53,51.80 -51.77,61.13 -59.17,69.57 -67.62,76.97 -76.95,83.21" fill="none" stroke="#222" stroke-width="4.933" stroke-linejoin="round"/><polygon points="-294.86,-1.23 -294.22,8.67 -292.28,18.40 -289.09,27.79 -284.71,36.69 -293.37,41.69 -298.33,31.62 -301.94,20.99 -304.13,9.97 -304.86,-1.23" fill="none" stroke="#222" stroke-width="4.933" stroke-linejoin="round"/><polygon points="-284.71,36.69 -279.20,44.93 -272.66,52.39 -265.20,58.93 -256.95,64.44 -261.95,73.10 -271.29,66.86 -279.73,59.46 -287.13,51.02 -293.37,41.69" fill="none" stroke="#222" stroke-width="4.933" stroke-linejoin="round"/></svg>