<svg xmlns="http://www.w3.org/2000/svg" viewBox="-190.99 -190.16 279.49 340.32" preserveAspectRatio="xMidYMid meet"><rect x="-190.99" y="-190.16" width="279.49" height="340.32" fill="#fafafa"/><polygon points="-5.00,-0.00 5.00,-0.00 5.00,-40.00 -5.00,-40.00" fill="none" stroke="#222" stroke-width="4.084" stroke-linejoin="round"/><polygon points="-5.00,-40.00 5.00,-40.00 5.00,-80.00 -5.00,-80.00" fill="none" stroke="#222" stroke-width="4.084" stroke-linejoin="round"/><polygon points="-6.50,-122.91 -4.18,-119.16 -1.65,-115.55 1.08,-112.09 4.01,-108.79 7.13,-105.67 10.43,-102.74 13.89,-100.00 17.50,-97.47 21.26,-95.16 16.26,-86.50 12.01,-89.12 7.92,-91.98 3.70,-94.90 4.42,-89.96 4.85,-84.99 5.00,-80.00 -5.00,-80.00 -5.13,-84.41 -5.51,-88.80 -6.15,-93.17 -7.04,-97.49 -8.19,-101.75 -9.57,-105.94 -11.20,-110.03 -13.07,-114.03 -15.16,-117.91" fill="none" stroke="#222" stroke-width="4.084" stroke-linejoin="round"/><polygon points="-15.16,-117.91 -20.67,-126.16 -27.21,-133.62 -34.67,-140.16 -42.91,-145.67 -37.91,-154.33 -28.58,-148.09 -20.14,-140.69 -12.74,-132.25 -6.50,-122.91" fill="none" stroke="#222" stroke-width="4.084" stroke-linejoin="round"/><polygon points="-42.91,-145.67 -51.81,-150.06 -61.20,-153.25 -70.93,-155.18 -80.83,-155.83 -80.83,-165.83 -69.63,-165.09 -58.61,-162.90 -47.98,-159.30 -37.91,-154.33" fill="none" stroke="#222" stroke-width="4.084" stroke-linejoin="round"/><polygon points="-80.83,-155.83 -90.73,-155.18 -100.46,-153.25 -109.85,-150.06 -118.74,-145.67 -123.74,-154.33 -113.67,-159.30 -103.04,-162.90 -92.03,-165.09 -80.83,-165.83" fill="none" stroke="#222" stroke-width="4.084" stroke-linejoin="round"/><polygon points="-118.74,-145.67 -126.99,-140.16 -134.45,-133.62 -140.99,-126.16 -146.50,-117.91 -155.16,-122.91 -148.92,-132.25 -141.52,-140.69 -133.08,-148.09 -123.74,-154.33" fill="none" stroke="#222" stroke-width="4.084" stroke-linejoin="round"/><polygon points="-146.50,-117.91 -150.89,-109.02 -154.07,-99.63 -156.01,-89.90 -156.66,-80.00 -166.66,-80.00 -165.92,-91.20 -163.73,-102.21 -160.12,-112.85 -155.16,-122.91" fill="none" stroke="#222" stroke-width="4.084" stroke-linejoin="round"/><polygon points="-156.66,-80.00 -166.66,-80.00 -166.66,-40.00 -156.66,-40.00" fill="none" stroke="#222" stroke-width="4.084" stroke-linejoin="round"/><polygon points="-156.66,-40.00 -166.66,-40.00 -166.66,-0.00 -156.66,-0.00" fill="none" stroke="#222" stroke-width="4.084" stroke-linejoin="round"/><polygon points="-156.66,-0.00 -166.66,-0.00 -166.66,40.00 -156.66,40.00" fill="none" stroke="#222" stroke-width="4.084" stroke-linejoin="round"/><polygon points="-156.66,40.00 -156.01,49.90 -154.07,59.63 -150.89,69.02 -146.50,77.91 -155.16,82.91 -160.12,72.85 -163.73,62.21 -165.92,51.20 -166.66,40.00" fill="none" stroke="#222" stroke-width="4.084" stroke-linejoin="round"/><polygon points="-146.50,77.91 -140.99,86.16 -134.45,93.62 -126.99,100.16 -118.74,105.67 -123.74,114.33 -133.08,108.09 -141.52,100.69 -148.92,92.25 -155.16,82.91" fill="none" stroke="#222" stroke-width="4.084" stroke-linejoin="round"/><polygon points="-118.74,105.67 -109.85,110.06 -100.46,113.25 -90.73,115.18 -80.83,115.83 -80.83,125.83 -92.03,125.09 -103.04,122.90 -113.67,119.30 -123.74,114.33" fill="none" stroke="#222" stroke-width="4.084" stroke-linejoin="round"/><polygon points="-80.83,115.83 -70.93,115.18 -61.20,113.25 -51.81,110.06 -42.91,105.67 -37.91,114.33 -47.98,119.30 -58.61,122.90 -69.63,125.09 -80.83,125.83" fill="none" stroke="#222" stroke-width="4.084" stroke-linejoin="round"/><polygon points="-42.91,105.67 -34.67,100.16 -27.21,93.62 -20.67,86.16 -15.16,77.91 -6.50,82.91 -12.74,92.25 -20.14,100.69 -28.58,108.09 -37.91,114.33" fill="none" stroke="#222" stroke-width="4.084" stroke-linejoin="round"/><polygon points="-15.16,77.91 -13.07,74.03 -11.20,70.03 -9.57,65.94 -8.19,61.75 -7.04,57.49 -6.15,53.17 -5.51,48.80 -5.13,44.41 -5.00,40.00 5.00,40.00 4.85,44.99 4.42,49.96 4.00,55.08 7.92,51.98 12.01,49.12 16.26,46.50 21.26,55.16 17.50,57.47 13.89,60.00 10.43,62.74 7.13,65.67 4.01,68.79 1.08,72.09 -1.65,75.55 -4.18,79.16 -6.50,82.91" fill="none" stroke="#222" stroke-width="4.084" stroke-linejoin="round"/><polygon points="-5.00,40.00 5.00,40.00 5.00,-0.00 -5.00,-0.00" fill="none" stroke="#222" stroke-width="4.084" stroke-linejoin="round"/><polygon points="16.26,46.50 24.50,40.99 31.96,34.45 38.50,26.99 44.01,18.74 52.67,23.74 46.43,33.08 39.03,41.52 30.59,48.92 21.26,55.16" fill="none" stroke="#222" stroke-width="4.084" stroke-linejoin="round"/><polygon points="44.01,18.74 48.40,9.85 51.59,0.46 53.52,-9.27 54.17,-19.17 64.17,-19.17 63.44,-7.97 61.25,3.04 57.64,13.67 52.67,23.74" fill="none" stroke="#222" stroke-width="4.084" stroke-linejoin="round"/><polygon points="54.17,-19.17 53.52,-29.07 51.59,-38.80 48.40,-48.19 44.01,-57.09 52.67,-62.09 57.64,-52.02 61.25,-41.39 63.44,-30.37 64.17,-19.17" fill="none" stroke="#222" stroke-width="4.084" stroke-linejoin="round"/><polygon points="44.01,-57.09 38.50,-65.33 31.96,-72.79 24.50,-79.33 16.26,-84.84 21.26,-93.50 30.59,-87.26 39.03,-79.86 46.43,-71.42 52.67,-62.09" fill="none" stroke="#222" stroke-width="4.084" stroke-linejoin="round"/></svg>