<svg xmlns="http://www.w3.org/2000/svg" viewBox="-154.90 -116.56 433.12 254.78" preserveAspectRatio="xMidYMid meet"><rect x="-154.90" y="-116.56" width="433.12" height="254.78" fill="#fafafa"/><polygon points="15.16,-37.91 10.77,-29.02 7.58,-19.63 5.65,-9.90 5.00,0.00 -5.00,0.00 -4.27,-11.20 -2.08,-22.21 1.53,-32.85 6.50,-42.91" fill="none" stroke="#222" stroke-width="5.197" stroke-linejoin="round"/><polygon points="42.91,-65.67 39.16,-63.35 35.55,-60.82 32.09,-58.09 28.79,-55.16 25.67,-52.04 22.74,-48.74 20.00,-45.28 17.47,-41.67 15.16,-37.91 6.50,-42.91 9.12,-47.16 11.98,-51.25 14.90,-55.47 9.96,-54.75 4.99,-54.32 0.00,-54.17 0.00,-64.17 4.41,-64.30 8.80,-64.68 13.17,-65.32 17.49,-66.21 21.75,-67.36 25.94,-68.74 30.03,-70.37 34.03,-72.24 37.91,-74.33" fill="none" stroke="#222" stroke-width="5.197" stroke-linejoin="round"/><polygon points="80.83,-75.83 70.93,-75.18 61.20,-73.25 51.81,-70.06 42.91,-65.67 37.91,-74.33 47.98,-79.30 58.61,-82.90 69.63,-85.09 80.83,-85.83" fill="none" stroke="#222" stroke-width="5.197" stroke-linejoin="round"/><polygon points="118.74,-65.67 109.85,-70.06 100.46,-73.25 90.73,-75.18 80.83,-75.83 80.83,-85.83 92.03,-85.09 103.04,-82.90 113.67,-79.30 123.74,-74.33" fill="none" stroke="#222" stroke-width="5.197" stroke-linejoin="round"/><polygon points="123.74,-74.33 127.63,-72.24 131.62,-70.37 135.72,-68.74 139.91,-67.36 144.17,-66.21 148.49,-65.32 152.85,-64.68 157.25,-64.30 161.66,-64.17 161.66,-54.17 156.67,-54.32 151.69,-54.75 146.58,-55.17 149.67,-51.25 152.54,-47.16 155.16,-42.91 146.50,-37.91 144.18,-41.67 141.65,-45.28 138.92,-48.74 135.99,-52.04 132.87,-55.16 129.57,-58.09 126.11,-60.82 122.50,-63.35 118.74,-65.67" fill="none" stroke="#222" stroke-width="5.197" stroke-linejoin="round"/><polygon points="199.57,-44.01 190.68,-48.40 181.28,-51.59 171.56,-53.52 161.66,-54.17 161.66,-64.17 172.86,-63.44 183.87,-61.25 194.50,-57.64 204.57,-52.67" fill="none" stroke="#222" stroke-width="5.197" stroke-linejoin="round"/><polygon points="227.33,-16.26 221.82,-24.50 215.28,-31.96 207.82,-38.50 199.57,-44.01 204.57,-52.67 213.91,-46.43 222.35,-39.03 229.75,-30.59 235.99,-21.26" fill="none" stroke="#222" stroke-width="5.197" stroke-linejoin="round"/><polygon points="237.49,21.66 236.84,11.76 234.90,2.03 231.71,-7.36 227.33,-16.26 235.99,-21.26 240.95,-11.19 244.56,-0.56 246.75,10.46 247.49,21.66" fill="none" stroke="#222" stroke-width="5.197" stroke-linejoin="round"/><polygon points="227.33,59.57 231.71,50.68 234.90,41.28 236.84,31.56 237.49,21.66 247.49,21.66 246.75,32.86 244.56,43.87 240.95,54.50 235.99,64.57" fill="none" stroke="#222" stroke-width="5.197" stroke-linejoin="round"/><polygon points="199.57,87.33 207.82,81.82 215.28,75.28 221.82,67.82 227.33,59.57 235.99,64.57 229.75,73.91 222.35,82.35 213.91,89.75 204.57,95.99" fill="none" stroke="#222" stroke-width="5.197" stroke-linejoin="round"/><polygon points="161.66,97.49 171.56,96.84 181.28,94.90 190.68,91.71 199.57,87.33 204.57,95.99 194.50,100.95 183.87,104.56 172.86,106.75 161.66,107.49" fill="none" stroke="#222" stroke-width="5.197" stroke-linejoin="round"/><polygon points="161.66,107.49 161.66,97.49 121.66,97.49 121.66,107.49" fill="none" stroke="#222" stroke-width="5.197" stroke-linejoin="round"/><polygon points="121.66,107.49 121.66,97.49 81.66,97.49 81.66,107.49" fill="none" stroke="#222" stroke-width="5.197" stroke-linejoin="round"/><polygon points="81.66,107.49 81.66,97.49 41.66,97.49 41.66,107.49" fill="none" stroke="#222" stroke-width="5.197" stroke-linejoin="round"/><polygon points="1.66,97.49 1.66,107.49 41.66,107.49 41.66,97.49" fill="none" stroke="#222" stroke-width="5.197" stroke-linejoin="round"/><polygon points="5.00,0.00 5.65,9.90 7.58,19.63 10.77,29.02 15.16,37.91 6.50,42.91 1.53,32.85 -2.08,22.21 -4.27,11.20 -5.00,0.00" fill="none" stroke="#222" stroke-width="5.197" stroke-linejoin="round"/><polygon points="15.16,37.91 20.67,46.16 27.21,53.62 34.67,60.16 42.91,65.67 37.91,74.33 28.58,68.09 20.14,60.69 12.74,52.25 6.50,42.91" fill="none" stroke="#222" stroke-width="5.197" stroke-linejoin="round"/><polygon points="42.91,65.67 51.81,70.06 61.20,73.25 70.93,75.18 80.83,75.83 80.83,85.83 69.63,85.09 58.61,82.90 47.98,79.30 37.91,74.33" fill="none" stroke="#222" stroke-width="5.197" stroke-linejoin="round"/><polygon points="80.83,75.83 90.73,75.18 100.46,73.25 109.85,70.06 118.74,65.67 123.74,74.33 113.67,79.30 103.04,82.90 92.03,85.09 80.83,85.83" fill="none" stroke="#222" stroke-width="5.197" stroke-linejoin="round"/><polygon points="118.74,65.67 126.99,60.16 134.45,53.62 140.99,46.16 146.50,37.91 155.16,42.91 148.92,52.25 141.52,60.69 133.08,68.09 123.74,74.33" fill="none" stroke="#222" stroke-width="5.197" stroke-linejoin="round"/><polygon points="146.50,37.91 150.89,29.02 154.07,19.63 156.01,9.90 156.66,0.00 166.66,0.00 165.92,11.20 163.73,22.21 160.12,32.85 155.16,42.91" fill="none" stroke="#222" stroke-width="5.197" stroke-linejoin="round"/><polygon points="156.66,0.00 156.01,-9.90 154.07,-19.63 150.89,-29.02 146.50,-37.91 155.16,-42.91 160.12,-32.85 163.73,-22.21 165.92,-11.20 166.66,0.00" fill="none" stroke="#222" stroke-width="5.197" stroke-linejoin="round"/><polygon points="1.66,107.49 1.66,97.49 -38.34,97.49 -38.34,107.49" fill="none" stroke="#222" stroke-width="5.197" stroke-linejoin="round"/><polygon points="-76.26,87.33 -67.36,91.71 -57.97,94.90 -48.24,96.84 -38.34,97.49 -38.34,107.49 -49.54,106.75 -60.56,104.56 -71.19,100.95 -81.26,95.99" fill="none" stroke="#222" stroke-width="5.197" stroke-linejoin="round"/><polygon points="-104.01,59.57 -98.50,67.82 -91.96,75.28 -84.50,81.82 -76.26,87.33 -81.26,95.99 -90.59,89.75 -99.03,82.35 -106.43,73.91 -112.67,64.57" fill="none" stroke="#222" stroke-width="5.197" stroke-linejoin="round"/><polygon points="-114.17,21.66 -113.52,31.56 -111.59,41.28 -108.40,50.68 -104.01,59.57 -112.67,64.57 -117.64,54.50 -121.25,43.87 -123.44,32.86 -124.17,21.66" fill="none" stroke="#222" stroke-width="5.197" stroke-linejoin="round"/><polygon points="-104.01,-16.26 -108.40,-7.36 -111.59,2.03 -113.52,11.76 -114.17,21.66 -124.17,21.66 -123.44,10.46 -121.25,-0.56 -117.64,-11.19 -112.67,-21.26" fill="none" stroke="#222" stroke-width="5.197" stroke-linejoin="round"/><polygon points="-76.26,-44.01 -84.50,-38.50 -91.96,-31.96 -98.50,-24.50 -104.01,-16.26 -112.67,-21.26 -106.43,-30.59 -99.03,-39.03 -90.59,-46.43 -81.26,-52.67" fill="none" stroke="#222" stroke-width="5.197" stroke-linejoin="round"/><polygon points="-38.34,-54.17 -48.24,-53.52 -57.97,-51.59 -67.36,-48.40 -76.26,-44.01 -81.26,-52.67 -71.19,-57.64 -60.56,-61.25 -49.54,-63.44 -38.34,-64.17" fill="none" stroke="#222" stroke-width="5.197" stroke-linejoin="round"/><polygon points="-38.34,-64.17 -38.34,-54.17 1.66,-54.17 1.66,-64.17" fill="none" stroke="#222" stroke-width="5.197" stroke-linejoin="round"/></svg>