<svg xmlns="http://www.w3.org/2000/svg" viewBox="-203.79 -282.96 407.58 525.92" preserveAspectRatio="xMidYMid meet"><rect x="-203.79" y="-282.96" width="407.58" height="525.92" fill="#fafafa"/><polygon points="-5.00,-0.00 5.00,-0.00 5.00,-17.11 19.82,-25.67 14.82,-34.33 5.00,-28.66 5.00,-40.00 -5.00,-40.00 -5.00,-22.89 -19.82,-14.33 -14.82,-5.67 -5.00,-11.34" fill="none" stroke="#222" stroke-width="6.311" stroke-linejoin="round"/><polygon points="5.00,-0.00 -5.00,-0.00 -5.00,40.00 5.00,40.00" fill="none" stroke="#222" stroke-width="6.311" stroke-linejoin="round"/><polygon points="5.00,40.00 -5.00,40.00 -5.00,80.00 5.00,80.00" fill="none" stroke="#222" stroke-width="6.311" stroke-linejoin="round"/><polygon points="5.00,80.00 -5.00,80.00 -5.00,120.00 5.00,120.00" fill="none" stroke="#222" stroke-width="6.311" stroke-linejoin="round"/><polygon points="-15.16,157.91 -10.77,149.02 -7.58,139.63 -5.65,129.90 -5.00,120.00 5.00,120.00 4.27,131.20 2.08,142.21 -1.53,152.85 -6.50,162.91" fill="none" stroke="#222" stroke-width="6.311" stroke-linejoin="round"/><polygon points="-42.91,185.67 -34.67,180.16 -27.21,173.62 -20.67,166.16 -15.16,157.91 -6.50,162.91 -12.74,172.25 -20.14,180.69 -28.58,188.09 -37.91,194.33" fill="none" stroke="#222" stroke-width="6.311" stroke-linejoin="round"/><polygon points="-80.83,195.83 -70.93,195.18 -61.20,193.25 -51.81,190.06 -42.91,185.67 -37.91,194.33 -47.98,199.30 -58.61,202.90 -69.63,205.09 -80.83,205.83" fill="none" stroke="#222" stroke-width="6.311" stroke-linejoin="round"/><polygon points="-118.74,185.67 -109.85,190.06 -100.46,193.25 -90.73,195.18 -80.83,195.83 -80.83,205.83 -92.03,205.09 -103.04,202.90 -113.67,199.30 -123.74,194.33" fill="none" stroke="#222" stroke-width="6.311" stroke-linejoin="round"/><polygon points="-146.50,157.91 -140.99,166.16 -134.45,173.62 -126.99,180.16 -118.74,185.67 -123.74,194.33 -133.08,188.09 -141.52,180.69 -148.92,172.25 -155.16,162.91" fill="none" stroke="#222" stroke-width="6.311" stroke-linejoin="round"/><polygon points="-156.66,120.00 -156.01,129.90 -154.07,139.63 -150.89,149.02 -146.50,157.91 -155.16,162.91 -160.12,152.85 -163.73,142.21 -165.92,131.20 -166.66,120.00" fill="none" stroke="#222" stroke-width="6.311" stroke-linejoin="round"/><polygon points="-146.50,82.09 -150.89,90.98 -154.07,100.37 -156.01,110.10 -156.66,120.00 -166.66,120.00 -165.92,108.80 -163.73,97.79 -160.12,87.15 -155.16,77.09" fill="none" stroke="#222" stroke-width="6.311" stroke-linejoin="round"/><polygon points="-118.74,54.33 -126.99,59.84 -134.45,66.38 -140.99,73.84 -146.50,82.09 -155.16,77.09 -148.92,67.75 -141.52,59.31 -133.08,51.91 -123.74,45.67" fill="none" stroke="#222" stroke-width="6.311" stroke-linejoin="round"/><polygon points="-123.74,45.67 -118.74,54.33 -84.10,34.33 -89.10,25.67" fill="none" stroke="#222" stroke-width="6.311" stroke-linejoin="round"/><polygon points="-89.10,25.67 -84.10,34.33 -49.46,14.33 -54.46,5.67" fill="none" stroke="#222" stroke-width="6.311" stroke-linejoin="round"/><polygon points="-54.46,5.67 -49.46,14.33 -14.82,-5.67 -19.82,-14.33" fill="none" stroke="#222" stroke-width="6.311" stroke-linejoin="round"/><polygon points="-5.00,-40.00 5.00,-40.00 5.00,-80.00 -5.00,-80.00" fill="none" stroke="#222" stroke-width="6.311" stroke-linejoin="round"/><polygon points="-5.00,-80.00 5.00,-80.00 5.00,-120.00 -5.00,-120.00" fill="none" stroke="#222" stroke-width="6.311" stroke-linejoin="round"/><polygon points="-5.00,-120.00 5.00,-120.00 5.00,-160.00 -5.00,-160.00" fill="none" stroke="#222" stroke-width="6.311" stroke-linejoin="round"/><polygon points="15.16,-197.91 10.77,-189.02 7.58,-179.63 5.65,-169.90 5.00,-160.00 -5.00,-160.00 -4.27,-171.20 -2.08,-182.21 1.53,-192.85 6.50,-202.91" fill="none" stroke="#222" stroke-width="6.311" stroke-linejoin="round"/><polygon points="42.91,-225.67 34.67,-220.16 27.21,-213.62 20.67,-206.16 15.16,-197.91 6.50,-202.91 12.74,-212.25 20.14,-220.69 28.58,-228.09 37.91,-234.33" fill="none" stroke="#222" stroke-width="6.311" stroke-linejoin="round"/><polygon points="80.83,-235.83 70.93,-235.18 61.20,-233.25 51.81,-230.06 42.91,-225.67 37.91,-234.33 47.98,-239.30 58.61,-242.90 69.63,-245.09 80.83,-245.83" fill="none" stroke="#222" stroke-width="6.311" stroke-linejoin="round"/><polygon points="118.74,-225.67 109.85,-230.06 100.46,-233.25 90.73,-235.18 80.83,-235.83 80.83,-245.83 92.03,-245.09 103.04,-242.90 113.67,-239.30 123.74,-234.33" fill="none" stroke="#222" stroke-width="6.311" stroke-linejoin="round"/><polygon points="146.50,-197.91 140.99,-206.16 134.45,-213.62 126.99,-220.16 118.74,-225.67 123.74,-234.33 133.08,-228.09 141.52,-220.69 148.92,-212.25 155.16,-202.91" fill="none" stroke="#222" stroke-width="6.311" stroke-linejoin="round"/><polygon points="156.66,-160.00 156.01,-169.90 154.07,-179.63 150.89,-189.02 146.50,-197.91 155.16,-202.91 160.12,-192.85 163.73,-182.21 165.92,-171.20 166.66,-160.00" fill="none" stroke="#222" stroke-width="6.311" stroke-linejoin="round"/><polygon points="146.50,-122.09 150.89,-130.98 154.07,-140.37 156.01,-150.10 156.66,-160.00 166.66,-160.00 165.92,-148.80 163.73,-137.79 160.12,-127.15 155.16,-117.09" fill="none" stroke="#222" stroke-width="6.311" stroke-linejoin="round"/><polygon points="118.74,-94.33 126.99,-99.84 134.45,-106.38 140.99,-113.84 146.50,-122.09 155.16,-117.09 148.92,-107.75 141.52,-99.31 133.08,-91.91 123.74,-85.67" fill="none" stroke="#222" stroke-width="6.311" stroke-linejoin="round"/><polygon points="123.74,-85.67 118.74,-94.33 84.10,-74.33 89.10,-65.67" fill="none" stroke="#222" stroke-width="6.311" stroke-linejoin="round"/><polygon points="89.10,-65.67 84.10,-74.33 49.46,-54.33 54.46,-45.67" fill="none" stroke="#222" stroke-width="6.311" stroke-linejoin="round"/><polygon points="54.46,-45.67 49.46,-54.33 14.82,-34.33 19.82,-25.67" fill="none" stroke="#222" stroke-width="6.311" stroke-linejoin="round"/></svg>