<svg xmlns="http://www.w3.org/2000/svg" viewBox="-45.47 -287.12 295.90 574.25" preserveAspectRatio="xMidYMid meet"><rect x="-45.47" y="-287.12" width="295.90" height="574.25" fill="#fafafa"/><polygon points="-5.00,-0.00 5.00,-0.00 5.00,-40.00 -5.00,-40.00" fill="none" stroke="#222" stroke-width="6.891" stroke-linejoin="round"/><polygon points="-5.00,-40.00 5.00,-40.00 5.00,-80.00 -5.00,-80.00" fill="none" stroke="#222" stroke-width="6.891" stroke-linejoin="round"/><polygon points="15.16,-117.91 10.77,-109.02 7.58,-99.63 5.65,-89.90 5.00,-80.00 -5.00,-80.00 -4.27,-91.20 -2.08,-102.21 1.53,-112.85 6.50,-122.91" fill="none" stroke="#222" stroke-width="6.891" stroke-linejoin="round"/><polygon points="26.66,-160.83 26.79,-156.42 27.17,-152.03 27.81,-147.66 28.70,-143.34 29.84,-139.08 31.23,-134.89 32.86,-130.79 34.72,-126.80 36.82,-122.91 28.16,-117.91 25.79,-122.31 23.68,-126.83 21.48,-131.47 19.64,-126.83 17.53,-122.31 15.16,-117.91 6.50,-122.91 8.59,-126.80 10.46,-130.79 12.09,-134.89 13.47,-139.08 14.61,-143.34 15.51,-147.66 16.15,-152.03 16.53,-156.42 16.66,-160.83" fill="none" stroke="#222" stroke-width="6.891" stroke-linejoin="round"/><polygon points="36.82,-198.74 32.43,-189.85 29.24,-180.46 27.31,-170.73 26.66,-160.83 16.66,-160.83 17.39,-172.03 19.58,-183.04 23.19,-193.67 28.16,-203.74" fill="none" stroke="#222" stroke-width="6.891" stroke-linejoin="round"/><polygon points="64.57,-226.50 56.33,-220.99 48.87,-214.45 42.33,-206.99 36.82,-198.74 28.16,-203.74 34.39,-213.08 41.80,-221.52 50.24,-228.92 59.57,-235.16" fill="none" stroke="#222" stroke-width="6.891" stroke-linejoin="round"/><polygon points="102.49,-236.66 92.59,-236.01 82.86,-234.07 73.47,-230.89 64.57,-226.50 59.57,-235.16 69.64,-240.12 80.27,-243.73 91.28,-245.92 102.49,-246.66" fill="none" stroke="#222" stroke-width="6.891" stroke-linejoin="round"/><polygon points="140.40,-226.50 131.51,-230.89 122.11,-234.07 112.38,-236.01 102.49,-236.66 102.49,-246.66 113.69,-245.92 124.70,-243.73 135.33,-240.12 145.40,-235.16" fill="none" stroke="#222" stroke-width="6.891" stroke-linejoin="round"/><polygon points="168.16,-198.74 162.65,-206.99 156.11,-214.45 148.65,-220.99 140.40,-226.50 145.40,-235.16 154.74,-228.92 163.18,-221.52 170.58,-213.08 176.82,-203.74" fill="none" stroke="#222" stroke-width="6.891" stroke-linejoin="round"/><polygon points="178.32,-160.83 177.67,-170.73 175.73,-180.46 172.54,-189.85 168.16,-198.74 176.82,-203.74 181.78,-193.67 185.39,-183.04 187.58,-172.03 188.32,-160.83" fill="none" stroke="#222" stroke-width="6.891" stroke-linejoin="round"/><polygon points="188.32,-160.83 188.44,-156.42 188.83,-152.03 189.47,-147.66 190.36,-143.34 191.50,-139.08 192.89,-134.89 194.52,-130.79 196.38,-126.80 198.48,-122.91 189.82,-117.91 187.45,-122.31 185.34,-126.83 183.14,-131.47 181.30,-126.83 179.19,-122.31 176.82,-117.91 168.16,-122.91 170.25,-126.80 172.11,-130.79 173.74,-134.89 175.13,-139.08 176.27,-143.34 177.16,-147.66 177.80,-152.03 178.19,-156.42 178.32,-160.83" fill="none" stroke="#222" stroke-width="6.891" stroke-linejoin="round"/><polygon points="199.97,-80.00 199.33,-89.90 197.39,-99.63 194.20,-109.02 189.82,-117.91 198.48,-122.91 203.44,-112.85 207.05,-102.21 209.24,-91.20 209.97,-80.00" fill="none" stroke="#222" stroke-width="6.891" stroke-linejoin="round"/><polygon points="209.97,-80.00 199.97,-80.00 199.97,-40.00 209.97,-40.00" fill="none" stroke="#222" stroke-width="6.891" stroke-linejoin="round"/><polygon points="209.97,-40.00 199.97,-40.00 199.97,0.00 209.97,0.00" fill="none" stroke="#222" stroke-width="6.891" stroke-linejoin="round"/><polygon points="209.97,0.00 199.97,0.00 199.97,40.00 209.97,40.00" fill="none" stroke="#222" stroke-width="6.891" stroke-linejoin="round"/><polygon points="209.97,40.00 199.97,40.00 199.97,80.00 209.97,80.00" fill="none" stroke="#222" stroke-width="6.891" stroke-linejoin="round"/><polygon points="189.82,117.91 194.20,109.02 197.39,99.63 199.33,89.90 199.97,80.00 209.97,80.00 209.24,91.20 207.05,102.21 203.44,112.85 198.48,122.91" fill="none" stroke="#222" stroke-width="6.891" stroke-linejoin="round"/><polygon points="178.32,160.83 178.19,156.42 177.80,152.03 177.16,147.66 176.27,143.34 175.13,139.08 173.74,134.89 172.11,130.79 170.25,126.80 168.16,122.91 176.82,117.91 179.19,122.31 181.30,126.83 183.49,131.47 185.34,126.83 187.45,122.31 189.82,117.91 198.48,122.91 196.38,126.80 194.52,130.79 192.89,134.89 191.50,139.08 190.36,143.34 189.47,147.66 188.83,152.03 188.44,156.42 188.32,160.83" fill="none" stroke="#222" stroke-width="6.891" stroke-linejoin="round"/><polygon points="168.16,198.74 172.54,189.85 175.73,180.46 177.67,170.73 178.32,160.83 188.32,160.83 187.58,172.03 185.39,183.04 181.78,193.67 176.82,203.74" fill="none" stroke="#222" stroke-width="6.891" stroke-linejoin="round"/><polygon points="140.40,226.50 148.65,220.99 156.11,214.45 162.65,206.99 168.16,198.74 176.82,203.74 170.58,213.08 163.18,221.52 154.74,228.92 145.40,235.16" fill="none" stroke="#222" stroke-width="6.891" stroke-linejoin="round"/><polygon points="102.49,236.66 112.38,236.01 122.11,234.07 131.51,230.89 140.40,226.50 145.40,235.16 135.33,240.12 124.70,243.73 113.69,245.92 102.49,246.66" fill="none" stroke="#222" stroke-width="6.891" stroke-linejoin="round"/><polygon points="64.57,226.50 73.47,230.89 82.86,234.07 92.59,236.01 102.49,236.66 102.49,246.66 91.28,245.92 80.27,243.73 69.64,240.12 59.57,235.16" fill="none" stroke="#222" stroke-width="6.891" stroke-linejoin="round"/><polygon points="36.82,198.74 42.33,206.99 48.87,214.45 56.33,220.99 64.57,226.50 59.57,235.16 50.24,228.92 41.80,221.52 34.39,213.08 28.16,203.74" fill="none" stroke="#222" stroke-width="6.891" stroke-linejoin="round"/><polygon points="26.66,160.83 27.31,170.73 29.24,180.46 32.43,189.85 36.82,198.74 28.16,203.74 23.19,193.67 19.58,183.04 17.39,172.03 16.66,160.83" fill="none" stroke="#222" stroke-width="6.891" stroke-linejoin="round"/><polygon points="16.66,160.83 16.53,156.42 16.15,152.03 15.51,147.66 14.61,143.34 13.47,139.08 12.09,134.89 10.46,130.79 8.59,126.80 6.50,122.91 15.16,117.91 17.53,122.31 19.64,126.83 21.83,131.47 23.68,126.83 25.79,122.31 28.16,117.91 36.82,122.91 34.72,126.80 32.86,130.79 31.23,134.89 29.84,139.08 28.70,143.34 27.81,147.66 27.17,152.03 26.79,156.42 26.66,160.83" fill="none" stroke="#222" stroke-width="6.891" stroke-linejoin="round"/><polygon points="5.00,80.00 5.65,89.90 7.58,99.63 10.77,109.02 15.16,117.91 6.50,122.91 1.53,112.85 -2.08,102.21 -4.27,91.20 -5.00,80.00" fill="none" stroke="#222" stroke-width="6.891" stroke-linejoin="round"/><polygon points="-5.00,80.00 5.00,80.00 5.00,40.00 -5.00,40.00" fill="none" stroke="#222" stroke-width="6.891" stroke-linejoin="round"/><polygon points="-5.00,40.00 5.00,40.00 5.00,-0.00 -5.00,-0.00" fill="none" stroke="#222" stroke-width="6.891" stroke-linejoin="round"/><polygon points="28.16,117.91 36.82,122.91 56.82,88.27 48.16,83.27" fill="none" stroke="#222" stroke-width="6.891" stroke-linejoin="round"/><polygon points="48.16,83.27 56.82,88.27 76.82,53.63 68.16,48.63" fill="none" stroke="#222" stroke-width="6.891" stroke-linejoin="round"/><polygon points="68.16,48.63 76.82,53.63 96.82,18.99 88.16,13.99" fill="none" stroke="#222" stroke-width="6.891" stroke-linejoin="round"/><polygon points="108.16,18.99 116.82,13.99 108.26,-0.83 116.82,-15.65 108.16,-20.65 102.49,-10.83 96.82,-20.65 88.16,-15.65 96.71,-0.83 88.16,13.99 96.82,18.99 102.49,9.17" fill="none" stroke="#222" stroke-width="6.891" stroke-linejoin="round"/><polygon points="116.82,13.99 108.16,18.99 128.16,53.63 136.82,48.63" fill="none" stroke="#222" stroke-width="6.891" stroke-linejoin="round"/><polygon points="136.82,48.63 128.16,53.63 148.16,88.27 156.82,83.27" fill="none" stroke="#222" stroke-width="6.891" stroke-linejoin="round"/><polygon points="156.82,83.27 148.16,88.27 168.16,122.91 176.82,117.91" fill="none" stroke="#222" stroke-width="6.891" stroke-linejoin="round"/><polygon points="88.16,-15.65 96.82,-20.65 76.82,-55.29 68.16,-50.29" fill="none" stroke="#222" stroke-width="6.891" stroke-linejoin="round"/><polygon points="68.16,-50.29 76.82,-55.29 56.82,-89.93 48.16,-84.93" fill="none" stroke="#222" stroke-width="6.891" stroke-linejoin="round"/><polygon points="48.16,-84.93 56.82,-89.93 36.82,-124.57 28.16,-119.57" fill="none" stroke="#222" stroke-width="6.891" stroke-linejoin="round"/><polygon points="108.16,-20.65 116.82,-15.65 136.82,-50.29 128.16,-55.29" fill="none" stroke="#222" stroke-width="6.891" stroke-linejoin="round"/><polygon points="128.16,-55.29 136.82,-50.29 156.82,-84.93 148.16,-89.93" fill="none" stroke="#222" stroke-width="6.891" stroke-linejoin="round"/><polygon points="148.16,-89.93 156.82,-84.93 176.82,-119.57 168.16,-124.57" fill="none" stroke="#222" stroke-width="6.891" stroke-linejoin="round"/></svg>