<svg xmlns="http://www.w3.org/2000/svg" viewBox="-170.93 -111.76 363.52 304.35" preserveAspectRatio="xMidYMid meet"><rect x="-170.93" y="-111.76" width="363.52" height="304.35" fill="#fafafa"/><polygon points="15.16,-37.91 10.77,-29.02 7.58,-19.63 5.65,-9.90 5.00,0.00 -5.00,0.00 -4.27,-11.20 -2.08,-22.21 1.53,-32.85 6.50,-42.91" fill="none" stroke="#222" stroke-width="4.362" stroke-linejoin="round"/><polygon points="42.91,-65.67 34.67,-60.16 27.21,-53.62 20.67,-46.16 15.16,-37.91 6.50,-42.91 12.74,-52.25 20.14,-60.69 28.58,-68.09 37.91,-74.33" fill="none" stroke="#222" stroke-width="4.362" stroke-linejoin="round"/><polygon points="80.83,-75.83 70.93,-75.18 61.20,-73.25 51.81,-70.06 42.91,-65.67 37.91,-74.33 47.98,-79.30 58.61,-82.90 69.63,-85.09 80.83,-85.83" fill="none" stroke="#222" stroke-width="4.362" stroke-linejoin="round"/><polygon points="118.74,-65.67 109.85,-70.06 100.46,-73.25 90.73,-75.18 80.83,-75.83 80.83,-85.83 92.03,-85.09 103.04,-82.90 113.67,-79.30 123.74,-74.33" fill="none" stroke="#222" stroke-width="4.362" stroke-linejoin="round"/><polygon points="146.50,-37.91 140.99,-46.16 134.45,-53.62 126.99,-60.16 118.74,-65.67 123.74,-74.33 133.08,-68.09 141.52,-60.69 148.92,-52.25 155.16,-42.91" fill="none" stroke="#222" stroke-width="4.362" stroke-linejoin="round"/><polygon points="156.66,0.00 156.01,-9.90 154.07,-19.63 150.89,-29.02 146.50,-37.91 155.16,-42.91 160.12,-32.85 163.73,-22.21 165.92,-11.20 166.66,0.00" fill="none" stroke="#222" stroke-width="4.362" stroke-linejoin="round"/><polygon points="146.50,37.91 150.89,29.02 154.07,19.63 156.01,9.90 156.66,0.00 166.66,0.00 165.92,11.20 163.73,22.21 160.12,32.85 155.16,42.91" fill="none" stroke="#222" stroke-width="4.362" stroke-linejoin="round"/><polygon points="118.74,65.67 126.99,60.16 134.45,53.62 140.99,46.16 146.50,37.91 155.16,42.91 148.92,52.25 141.52,60.69 133.08,68.09 123.74,74.33" fill="none" stroke="#222" stroke-width="4.362" stroke-linejoin="round"/><polygon points="80.83,75.83 90.73,75.18 100.46,73.25 109.85,70.06 118.74,65.67 123.74,74.33 113.67,79.30 103.04,82.90 92.03,85.09 80.83,85.83" fill="none" stroke="#222" stroke-width="4.362" stroke-linejoin="round"/><polygon points="42.91,65.67 51.81,70.06 61.20,73.25 70.93,75.18 80.83,75.83 80.83,85.83 69.63,85.09 58.61,82.90 47.98,79.30 37.91,74.33" fill="none" stroke="#222" stroke-width="4.362" stroke-linejoin="round"/><polygon points="15.16,37.91 17.47,41.67 20.00,45.28 22.74,48.74 25.67,52.04 28.79,55.16 32.09,58.09 35.55,60.82 39.16,63.35 42.91,65.67 37.91,74.33 33.67,71.71 29.58,68.85 25.35,65.92 26.08,70.86 26.51,75.84 26.66,80.83 16.66,80.83 16.53,76.42 16.15,72.03 15.51,67.66 14.61,63.34 13.47,59.08 12.09,54.89 10.46,50.79 8.59,46.80 6.50,42.91" fill="none" stroke="#222" stroke-width="4.362" stroke-linejoin="round"/><polygon points="6.50,42.91 4.18,39.16 1.65,35.55 -1.08,32.09 -4.01,28.79 -7.13,25.67 -10.43,22.74 -13.89,20.00 -17.50,17.47 -21.26,15.16 -16.26,6.50 -12.01,9.12 -7.92,11.98 -3.70,14.90 -4.42,9.96 -4.85,4.99 -5.00,-0.00 5.00,-0.00 5.13,4.41 5.51,8.80 6.15,13.17 7.04,17.49 8.19,21.75 9.57,25.94 11.20,30.03 13.07,34.03 15.16,37.91" fill="none" stroke="#222" stroke-width="4.362" stroke-linejoin="round"/><polygon points="-21.26,15.16 -30.15,10.77 -39.54,7.58 -49.27,5.65 -59.17,5.00 -59.17,-5.00 -47.97,-4.27 -36.96,-2.08 -26.33,1.53 -16.26,6.50" fill="none" stroke="#222" stroke-width="4.362" stroke-linejoin="round"/><polygon points="-59.17,5.00 -69.07,5.65 -78.80,7.58 -88.19,10.77 -97.09,15.16 -102.09,6.50 -92.02,1.53 -81.39,-2.08 -70.37,-4.27 -59.17,-5.00" fill="none" stroke="#222" stroke-width="4.362" stroke-linejoin="round"/><polygon points="-97.09,15.16 -105.33,20.67 -112.79,27.21 -119.33,34.67 -124.84,42.91 -133.50,37.91 -127.26,28.58 -119.86,20.14 -111.42,12.74 -102.09,6.50" fill="none" stroke="#222" stroke-width="4.362" stroke-linejoin="round"/><polygon points="-124.84,42.91 -129.23,51.81 -132.42,61.20 -134.35,70.93 -135.00,80.83 -145.00,80.83 -144.27,69.63 -142.08,58.61 -138.47,47.98 -133.50,37.91" fill="none" stroke="#222" stroke-width="4.362" stroke-linejoin="round"/><polygon points="-135.00,80.83 -134.35,90.73 -132.42,100.46 -129.23,109.85 -124.84,118.74 -133.50,123.74 -138.47,113.67 -142.08,103.04 -144.27,92.03 -145.00,80.83" fill="none" stroke="#222" stroke-width="4.362" stroke-linejoin="round"/><polygon points="-124.84,118.74 -119.33,126.99 -112.79,134.45 -105.33,140.99 -97.09,146.50 -102.09,155.16 -111.42,148.92 -119.86,141.52 -127.26,133.08 -133.50,123.74" fill="none" stroke="#222" stroke-width="4.362" stroke-linejoin="round"/><polygon points="-97.09,146.50 -88.19,150.89 -78.80,154.07 -69.07,156.01 -59.17,156.66 -59.17,166.66 -70.37,165.92 -81.39,163.73 -92.02,160.12 -102.09,155.16" fill="none" stroke="#222" stroke-width="4.362" stroke-linejoin="round"/><polygon points="-59.17,156.66 -49.27,156.01 -39.54,154.07 -30.15,150.89 -21.26,146.50 -16.26,155.16 -26.33,160.12 -36.96,163.73 -47.97,165.92 -59.17,166.66" fill="none" stroke="#222" stroke-width="4.362" stroke-linejoin="round"/><polygon points="-21.26,146.50 -13.01,140.99 -5.55,134.45 0.99,126.99 6.50,118.74 15.16,123.74 8.92,133.08 1.52,141.52 -6.92,148.92 -16.26,155.16" fill="none" stroke="#222" stroke-width="4.362" stroke-linejoin="round"/><polygon points="6.50,118.74 10.89,109.85 14.07,100.46 16.01,90.73 16.66,80.83 26.66,80.83 25.92,92.03 23.73,103.04 20.12,113.67 15.16,123.74" fill="none" stroke="#222" stroke-width="4.362" stroke-linejoin="round"/></svg>