<svg xmlns="http://www.w3.org/2000/svg" viewBox="-45.52 -283.03 289.37 526.89" preserveAspectRatio="xMidYMid meet"><rect x="-45.52" y="-283.03" width="289.37" height="526.89" fill="#fafafa"/><polygon points="-5.00,-0.00 5.00,-0.00 5.00,-40.00 -5.00,-40.00" fill="none" stroke="#222" stroke-width="6.323" stroke-linejoin="round"/><polygon points="5.00,-0.00 -5.00,-0.00 -5.00,40.00 5.00,40.00" fill="none" stroke="#222" stroke-width="6.323" stroke-linejoin="round"/><polygon points="-5.00,-40.00 5.00,-40.00 5.00,-80.00 -5.00,-80.00" fill="none" stroke="#222" stroke-width="6.323" stroke-linejoin="round"/><polygon points="-5.00,-80.00 5.00,-80.00 5.00,-120.00 -5.00,-120.00" fill="none" stroke="#222" stroke-width="6.323" stroke-linejoin="round"/><polygon points="-5.00,-120.00 5.00,-120.00 5.00,-160.00 -5.00,-160.00" fill="none" stroke="#222" stroke-width="6.323" stroke-linejoin="round"/><polygon points="15.16,-197.91 10.77,-189.02 7.58,-179.63 5.65,-169.90 5.00,-160.00 -5.00,-160.00 -4.27,-171.20 -2.08,-182.21 1.53,-192.85 6.50,-202.91" fill="none" stroke="#222" stroke-width="6.323" stroke-linejoin="round"/><polygon points="42.91,-225.67 34.67,-220.16 27.21,-213.62 20.67,-206.16 15.16,-197.91 6.50,-202.91 12.74,-212.25 20.14,-220.69 28.58,-228.09 37.91,-234.33" fill="none" stroke="#222" stroke-width="6.323" stroke-linejoin="round"/><polygon points="80.83,-235.83 70.93,-235.18 61.20,-233.25 51.81,-230.06 42.91,-225.67 37.91,-234.33 47.98,-239.30 58.61,-242.90 69.63,-245.09 80.83,-245.83" fill="none" stroke="#222" stroke-width="6.323" stroke-linejoin="round"/><polygon points="80.83,-245.83 80.83,-235.83 120.83,-235.83 120.83,-245.83" fill="none" stroke="#222" stroke-width="6.323" stroke-linejoin="round"/><polygon points="158.74,-225.67 149.85,-230.06 140.46,-233.25 130.73,-235.18 120.83,-235.83 120.83,-245.83 132.03,-245.09 143.04,-242.90 153.67,-239.30 163.74,-234.33" fill="none" stroke="#222" stroke-width="6.323" stroke-linejoin="round"/><polygon points="186.50,-197.91 180.99,-206.16 174.45,-213.62 166.99,-220.16 158.74,-225.67 163.74,-234.33 173.08,-228.09 181.52,-220.69 188.92,-212.25 195.16,-202.91" fill="none" stroke="#222" stroke-width="6.323" stroke-linejoin="round"/><polygon points="196.66,-160.00 196.01,-169.90 194.07,-179.63 190.89,-189.02 186.50,-197.91 195.16,-202.91 200.12,-192.85 203.73,-182.21 205.92,-171.20 206.66,-160.00" fill="none" stroke="#222" stroke-width="6.323" stroke-linejoin="round"/><polygon points="206.66,-160.00 196.66,-160.00 196.66,-120.00 206.66,-120.00" fill="none" stroke="#222" stroke-width="6.323" stroke-linejoin="round"/><polygon points="206.66,-120.00 196.66,-120.00 196.66,-80.00 206.66,-80.00" fill="none" stroke="#222" stroke-width="6.323" stroke-linejoin="round"/><polygon points="206.66,-80.00 196.66,-80.00 196.66,-40.00 206.66,-40.00" fill="none" stroke="#222" stroke-width="6.323" stroke-linejoin="round"/><polygon points="206.66,-40.00 196.66,-40.00 196.66,0.00 206.66,0.00" fill="none" stroke="#222" stroke-width="6.323" stroke-linejoin="round"/><polygon points="206.66,0.00 196.66,0.00 196.66,40.00 206.66,40.00" fill="none" stroke="#222" stroke-width="6.323" stroke-linejoin="round"/><polygon points="186.50,77.91 190.89,69.02 194.07,59.63 196.01,49.90 196.66,40.00 206.66,40.00 205.92,51.20 203.73,62.21 200.12,72.85 195.16,82.91" fill="none" stroke="#222" stroke-width="6.323" stroke-linejoin="round"/><polygon points="175.00,120.83 174.87,116.42 174.49,112.03 173.85,107.66 172.96,103.34 171.81,99.08 170.43,94.89 168.80,90.79 166.93,86.80 164.84,82.91 173.50,77.91 175.87,82.31 177.98,86.83 180.18,91.47 182.02,86.83 184.13,82.31 186.50,77.91 195.16,82.91 193.07,86.80 191.20,90.79 189.57,94.89 188.19,99.08 187.04,103.34 186.15,107.66 185.51,112.03 185.13,116.42 185.00,120.83" fill="none" stroke="#222" stroke-width="6.323" stroke-linejoin="round"/><polygon points="164.84,158.74 169.23,149.85 172.42,140.46 174.35,130.73 175.00,120.83 185.00,120.83 184.27,132.03 182.08,143.04 178.47,153.67 173.50,163.74" fill="none" stroke="#222" stroke-width="6.323" stroke-linejoin="round"/><polygon points="137.09,186.50 145.33,180.99 152.79,174.45 159.33,166.99 164.84,158.74 173.50,163.74 167.26,173.08 159.86,181.52 151.42,188.92 142.09,195.16" fill="none" stroke="#222" stroke-width="6.323" stroke-linejoin="round"/><polygon points="99.17,196.66 109.07,196.01 118.80,194.07 128.19,190.89 137.09,186.50 142.09,195.16 132.02,200.12 121.39,203.73 110.37,205.92 99.17,206.66" fill="none" stroke="#222" stroke-width="6.323" stroke-linejoin="round"/><polygon points="61.26,186.50 70.15,190.89 79.54,194.07 89.27,196.01 99.17,196.66 99.17,206.66 87.97,205.92 76.96,203.73 66.33,200.12 56.26,195.16" fill="none" stroke="#222" stroke-width="6.323" stroke-linejoin="round"/><polygon points="33.50,158.74 39.01,166.99 45.55,174.45 53.01,180.99 61.26,186.50 56.26,195.16 46.92,188.92 38.48,181.52 31.08,173.08 24.84,163.74" fill="none" stroke="#222" stroke-width="6.323" stroke-linejoin="round"/><polygon points="23.34,120.83 23.99,130.73 25.93,140.46 29.11,149.85 33.50,158.74 24.84,163.74 19.88,153.67 16.27,143.04 14.08,132.03 13.34,120.83" fill="none" stroke="#222" stroke-width="6.323" stroke-linejoin="round"/><polygon points="13.34,120.83 13.21,116.42 12.83,112.03 12.19,107.66 11.30,103.34 10.16,99.08 8.77,94.89 7.14,90.79 5.28,86.80 3.18,82.91 11.84,77.91 14.21,82.31 16.32,86.83 18.52,91.47 20.36,86.83 22.47,82.31 24.84,77.91 33.50,82.91 31.41,86.80 29.54,90.79 27.91,94.89 26.53,99.08 25.39,103.34 24.49,107.66 23.85,112.03 23.47,116.42 23.34,120.83" fill="none" stroke="#222" stroke-width="6.323" stroke-linejoin="round"/><polygon points="1.68,40.00 2.33,49.90 4.27,59.63 7.46,69.02 11.84,77.91 3.18,82.91 -1.78,72.85 -5.39,62.21 -7.58,51.20 -8.32,40.00" fill="none" stroke="#222" stroke-width="6.323" stroke-linejoin="round"/><polygon points="164.84,82.91 159.33,74.67 152.79,67.21 145.33,60.67 137.09,55.16 142.09,46.50 151.42,52.74 159.86,60.14 167.26,68.58 173.50,77.91" fill="none" stroke="#222" stroke-width="6.323" stroke-linejoin="round"/><polygon points="114.33,18.74 119.84,26.99 126.38,34.45 133.84,40.99 142.09,46.50 137.09,55.16 127.75,48.92 119.31,41.52 111.91,33.08 105.67,23.74" fill="none" stroke="#222" stroke-width="6.323" stroke-linejoin="round"/><polygon points="105.67,23.74 114.33,18.74 105.77,3.92 114.33,-10.90 105.67,-15.90 100.00,-6.08 94.33,-15.90 85.67,-10.90 94.23,3.92 85.67,18.74 94.33,23.74 100.00,13.92" fill="none" stroke="#222" stroke-width="6.323" stroke-linejoin="round"/><polygon points="62.91,-47.31 66.80,-45.22 70.79,-43.36 74.89,-41.73 79.08,-40.34 83.34,-39.20 87.66,-38.31 92.03,-37.67 96.42,-37.28 100.83,-37.15 100.83,-27.15 95.84,-27.30 90.86,-27.73 85.75,-28.15 88.85,-24.24 91.71,-20.15 94.33,-15.90 85.67,-10.90 83.35,-14.65 80.82,-18.26 78.09,-21.72 75.16,-25.02 72.04,-28.14 68.74,-31.07 65.28,-33.81 61.67,-36.34 57.91,-38.65" fill="none" stroke="#222" stroke-width="6.323" stroke-linejoin="round"/><polygon points="35.16,-75.07 40.67,-66.82 47.21,-59.36 54.67,-52.82 62.91,-47.31 57.91,-38.65 48.58,-44.89 40.14,-52.29 32.74,-60.73 26.50,-70.07" fill="none" stroke="#222" stroke-width="6.323" stroke-linejoin="round"/><polygon points="25.00,-112.98 25.65,-103.09 27.58,-93.36 30.77,-83.96 35.16,-75.07 26.50,-70.07 21.53,-80.14 17.92,-90.77 15.73,-101.78 15.00,-112.98" fill="none" stroke="#222" stroke-width="6.323" stroke-linejoin="round"/><polygon points="35.16,-150.90 30.77,-142.00 27.58,-132.61 25.65,-122.88 25.00,-112.98 15.00,-112.98 15.73,-124.19 17.92,-135.20 21.53,-145.83 26.50,-155.90" fill="none" stroke="#222" stroke-width="6.323" stroke-linejoin="round"/><polygon points="62.91,-178.65 54.67,-173.14 47.21,-166.60 40.67,-159.14 35.16,-150.90 26.50,-155.90 32.74,-165.23 40.14,-173.67 48.58,-181.08 57.91,-187.31" fill="none" stroke="#222" stroke-width="6.323" stroke-linejoin="round"/><polygon points="100.83,-188.81 90.93,-188.16 81.20,-186.23 71.81,-183.04 62.91,-178.65 57.91,-187.31 67.98,-192.28 78.61,-195.89 89.63,-198.08 100.83,-198.81" fill="none" stroke="#222" stroke-width="6.323" stroke-linejoin="round"/><polygon points="138.74,-178.65 129.85,-183.04 120.46,-186.23 110.73,-188.16 100.83,-188.81 100.83,-198.81 112.03,-198.08 123.04,-195.89 133.67,-192.28 143.74,-187.31" fill="none" stroke="#222" stroke-width="6.323" stroke-linejoin="round"/><polygon points="166.50,-150.90 160.99,-159.14 154.45,-166.60 146.99,-173.14 138.74,-178.65 143.74,-187.31 153.08,-181.08 161.52,-173.67 168.92,-165.23 175.16,-155.90" fill="none" stroke="#222" stroke-width="6.323" stroke-linejoin="round"/><polygon points="176.66,-112.98 176.01,-122.88 174.07,-132.61 170.89,-142.00 166.50,-150.90 175.16,-155.90 180.12,-145.83 183.73,-135.20 185.92,-124.19 186.66,-112.98" fill="none" stroke="#222" stroke-width="6.323" stroke-linejoin="round"/><polygon points="166.50,-75.07 170.89,-83.96 174.07,-93.36 176.01,-103.09 176.66,-112.98 186.66,-112.98 185.92,-101.78 183.73,-90.77 180.12,-80.14 175.16,-70.07" fill="none" stroke="#222" stroke-width="6.323" stroke-linejoin="round"/><polygon points="138.74,-47.31 146.99,-52.82 154.45,-59.36 160.99,-66.82 166.50,-75.07 175.16,-70.07 168.92,-60.73 161.52,-52.29 153.08,-44.89 143.74,-38.65" fill="none" stroke="#222" stroke-width="6.323" stroke-linejoin="round"/><polygon points="143.74,-38.65 139.99,-36.34 136.38,-33.81 132.92,-31.07 129.62,-28.14 126.50,-25.02 123.57,-21.72 120.83,-18.26 118.30,-14.65 115.99,-10.90 107.33,-15.90 109.95,-20.15 112.81,-24.24 115.73,-28.46 110.79,-27.73 105.82,-27.30 100.83,-27.15 100.83,-37.15 105.24,-37.28 109.63,-37.67 114.00,-38.31 118.32,-39.20 122.58,-40.34 126.76,-41.73 130.86,-43.36 134.86,-45.22 138.74,-47.31" fill="none" stroke="#222" stroke-width="6.323" stroke-linejoin="round"/><polygon points="57.91,46.50 66.16,40.99 73.62,34.45 80.16,26.99 85.67,18.74 94.33,23.74 88.09,33.08 80.69,41.52 72.25,48.92 62.91,55.16" fill="none" stroke="#222" stroke-width="6.323" stroke-linejoin="round"/><polygon points="62.91,55.16 54.67,60.67 47.21,67.21 40.67,74.67 35.16,82.91 26.50,77.91 32.74,68.58 40.14,60.14 48.58,52.74 57.91,46.50" fill="none" stroke="#222" stroke-width="6.323" stroke-linejoin="round"/></svg>