<svg xmlns="http://www.w3.org/2000/svg" viewBox="-22.93 -143.76 207.52 247.52" preserveAspectRatio="xMidYMid meet"><rect x="-22.93" y="-143.76" width="207.52" height="247.52" fill="#fafafa"/><polygon points="-5.00,-0.00 5.00,-0.00 5.00,-40.00 -5.00,-40.00" fill="none" stroke="#222" stroke-width="2.970" stroke-linejoin="round"/><polygon points="15.16,-77.91 10.77,-69.02 7.58,-59.63 5.65,-49.90 5.00,-40.00 -5.00,-40.00 -4.27,-51.20 -2.08,-62.21 1.53,-72.85 6.50,-82.91" fill="none" stroke="#222" stroke-width="2.970" stroke-linejoin="round"/><polygon points="42.91,-105.67 34.67,-100.16 27.21,-93.62 20.67,-86.16 15.16,-77.91 6.50,-82.91 12.74,-92.25 20.14,-100.69 28.58,-108.09 37.91,-114.33" fill="none" stroke="#222" stroke-width="2.970" stroke-linejoin="round"/><polygon points="80.83,-115.83 70.93,-115.18 61.20,-113.25 51.81,-110.06 42.91,-105.67 37.91,-114.33 47.98,-119.30 58.61,-122.90 69.63,-125.09 80.83,-125.83" fill="none" stroke="#222" stroke-width="2.970" stroke-linejoin="round"/><polygon points="118.74,-105.67 109.85,-110.06 100.46,-113.25 90.73,-115.18 80.83,-115.83 80.83,-125.83 92.03,-125.09 103.04,-122.90 113.67,-119.30 123.74,-114.33" fill="none" stroke="#222" stroke-width="2.970" stroke-linejoin="round"/><polygon points="146.50,-77.91 140.99,-86.16 134.45,-93.62 126.99,-100.16 118.74,-105.67 123.74,-114.33 133.08,-108.09 141.52,-100.69 148.92,-92.25 155.16,-82.91" fill="none" stroke="#222" stroke-width="2.970" stroke-linejoin="round"/><polygon points="156.66,-40.00 156.01,-49.90 154.07,-59.63 150.89,-69.02 146.50,-77.91 155.16,-82.91 160.12,-72.85 163.73,-62.21 165.92,-51.20 166.66,-40.00" fill="none" stroke="#222" stroke-width="2.970" stroke-linejoin="round"/><polygon points="166.66,-40.00 156.66,-40.00 156.66,0.00 166.66,0.00" fill="none" stroke="#222" stroke-width="2.970" stroke-linejoin="round"/><polygon points="146.50,37.91 150.89,29.02 154.07,19.63 156.01,9.90 156.66,0.00 166.66,0.00 165.92,11.20 163.73,22.21 160.12,32.85 155.16,42.91" fill="none" stroke="#222" stroke-width="2.970" stroke-linejoin="round"/><polygon points="118.74,65.67 126.99,60.16 134.45,53.62 140.99,46.16 146.50,37.91 155.16,42.91 148.92,52.25 141.52,60.69 133.08,68.09 123.74,74.33" fill="none" stroke="#222" stroke-width="2.970" stroke-linejoin="round"/><polygon points="80.83,75.83 90.73,75.18 100.46,73.25 109.85,70.06 118.74,65.67 123.74,74.33 113.67,79.30 103.04,82.90 92.03,85.09 80.83,85.83" fill="none" stroke="#222" stroke-width="2.970" stroke-linejoin="round"/><polygon points="42.91,65.67 51.81,70.06 61.20,73.25 70.93,75.18 80.83,75.83 80.83,85.83 69.63,85.09 58.61,82.90 47.98,79.30 37.91,74.33" fill="none" stroke="#222" stroke-width="2.970" stroke-linejoin="round"/><polygon points="15.16,37.91 20.67,46.16 27.21,53.62 34.67,60.16 42.91,65.67 37.91,74.33 28.58,68.09 20.14,60.69 12.74,52.25 6.50,42.91" fill="none" stroke="#222" stroke-width="2.970" stroke-linejoin="round"/><polygon points="5.00,-0.00 5.65,9.90 7.58,19.63 10.77,29.02 15.16,37.91 6.50,42.91 1.53,32.85 -2.08,22.21 -4.27,11.20 -5.00,-0.00" fill="none" stroke="#222" stroke-width="2.970" stroke-linejoin="round"/></svg>