<svg xmlns="http://www.w3.org/2000/svg" viewBox="-194.32 -153.49 388.65 346.99" preserveAspectRatio="xMidYMid meet"><rect x="-194.32" y="-153.49" width="388.65" height="346.99" fill="#fafafa"/><polygon points="-5.00,-0.00 5.00,-0.00 5.00,-40.00 -5.00,-40.00" fill="none" stroke="#222" stroke-width="4.664" stroke-linejoin="round"/><polygon points="-5.00,-40.00 -5.13,-44.41 -5.51,-48.80 -6.15,-53.17 -7.04,-57.49 -8.19,-61.75 -9.57,-65.94 -11.20,-70.03 -13.07,-74.03 -15.16,-77.91 -6.50,-82.91 -4.13,-78.52 -2.02,-74.00 0.18,-69.36 2.02,-74.00 4.13,-78.52 6.50,-82.91 15.16,-77.91 13.07,-74.03 11.20,-70.03 9.57,-65.94 8.19,-61.75 7.04,-57.49 6.15,-53.17 5.51,-48.80 5.13,-44.41 5.00,-40.00" fill="none" stroke="#222" stroke-width="4.664" stroke-linejoin="round"/><polygon points="-15.16,-77.91 -20.67,-86.16 -27.21,-93.62 -34.67,-100.16 -42.91,-105.67 -37.91,-114.33 -28.58,-108.09 -20.14,-100.69 -12.74,-92.25 -6.50,-82.91" fill="none" stroke="#222" stroke-width="4.664" stroke-linejoin="round"/><polygon points="-42.91,-105.67 -51.81,-110.06 -61.20,-113.25 -70.93,-115.18 -80.83,-115.83 -80.83,-125.83 -69.63,-125.09 -58.61,-122.90 -47.98,-119.30 -37.91,-114.33" fill="none" stroke="#222" stroke-width="4.664" stroke-linejoin="round"/><polygon points="-80.83,-115.83 -90.73,-115.18 -100.46,-113.25 -109.85,-110.06 -118.74,-105.67 -123.74,-114.33 -113.67,-119.30 -103.04,-122.90 -92.03,-125.09 -80.83,-125.83" fill="none" stroke="#222" stroke-width="4.664" stroke-linejoin="round"/><polygon points="-118.74,-105.67 -126.99,-100.16 -134.45,-93.62 -140.99,-86.16 -146.50,-77.91 -155.16,-82.91 -148.92,-92.25 -141.52,-100.69 -133.08,-108.09 -123.74,-114.33" fill="none" stroke="#222" stroke-width="4.664" stroke-linejoin="round"/><polygon points="-146.50,-77.91 -150.89,-69.02 -154.07,-59.63 -156.01,-49.90 -156.66,-40.00 -166.66,-40.00 -165.92,-51.20 -163.73,-62.21 -160.12,-72.85 -155.16,-82.91" fill="none" stroke="#222" stroke-width="4.664" stroke-linejoin="round"/><polygon points="-156.66,-40.00 -166.66,-40.00 -166.66,-0.00 -156.66,-0.00" fill="none" stroke="#222" stroke-width="4.664" stroke-linejoin="round"/><polygon points="-156.66,-0.00 -166.66,-0.00 -166.66,40.00 -156.66,40.00" fill="none" stroke="#222" stroke-width="4.664" stroke-linejoin="round"/><polygon points="-156.66,40.00 -166.66,40.00 -166.66,80.00 -156.66,80.00" fill="none" stroke="#222" stroke-width="4.664" stroke-linejoin="round"/><polygon points="-156.66,80.00 -156.01,89.90 -154.07,99.63 -150.89,109.02 -146.50,117.91 -155.16,122.91 -160.12,112.85 -163.73,102.21 -165.92,91.20 -166.66,80.00" fill="none" stroke="#222" stroke-width="4.664" stroke-linejoin="round"/><polygon points="-146.50,117.91 -140.99,126.16 -134.45,133.62 -126.99,140.16 -118.74,145.67 -123.74,154.33 -133.08,148.09 -141.52,140.69 -148.92,132.25 -155.16,122.91" fill="none" stroke="#222" stroke-width="4.664" stroke-linejoin="round"/><polygon points="-118.74,145.67 -109.85,150.06 -100.46,153.25 -90.73,155.18 -80.83,155.83 -80.83,165.83 -92.03,165.09 -103.04,162.90 -113.67,159.30 -123.74,154.33" fill="none" stroke="#222" stroke-width="4.664" stroke-linejoin="round"/><polygon points="-80.83,155.83 -70.93,155.18 -61.20,153.25 -51.81,150.06 -42.91,145.67 -37.91,154.33 -47.98,159.30 -58.61,162.90 -69.63,165.09 -80.83,165.83" fill="none" stroke="#222" stroke-width="4.664" stroke-linejoin="round"/><polygon points="-42.91,145.67 -34.67,140.16 -27.21,133.62 -20.67,126.16 -15.16,117.91 -6.50,122.91 -12.74,132.25 -20.14,140.69 -28.58,148.09 -37.91,154.33" fill="none" stroke="#222" stroke-width="4.664" stroke-linejoin="round"/><polygon points="5.00,80.00 5.13,84.41 5.51,88.80 6.15,93.17 7.04,97.49 8.19,101.75 9.57,105.94 11.20,110.03 13.07,114.03 15.16,117.91 6.50,122.91 4.13,118.52 2.02,114.00 -0.18,109.36 -2.02,114.00 -4.13,118.52 -6.50,122.91 -15.16,117.91 -13.07,114.03 -11.20,110.03 -9.57,105.94 -8.19,101.75 -7.04,97.49 -6.15,93.17 -5.51,88.80 -5.13,84.41 -5.00,80.00" fill="none" stroke="#222" stroke-width="4.664" stroke-linejoin="round"/><polygon points="-5.00,80.00 5.00,80.00 5.00,40.00 -5.00,40.00" fill="none" stroke="#222" stroke-width="4.664" stroke-linejoin="round"/><polygon points="-5.00,40.00 5.00,40.00 5.00,-0.00 -5.00,-0.00" fill="none" stroke="#222" stroke-width="4.664" stroke-linejoin="round"/><polygon points="15.16,117.91 20.67,126.16 27.21,133.62 34.67,140.16 42.91,145.67 37.91,154.33 28.58,148.09 20.14,140.69 12.74,132.25 6.50,122.91" fill="none" stroke="#222" stroke-width="4.664" stroke-linejoin="round"/><polygon points="42.91,145.67 51.81,150.06 61.20,153.25 70.93,155.18 80.83,155.83 80.83,165.83 69.63,165.09 58.61,162.90 47.98,159.30 37.91,154.33" fill="none" stroke="#222" stroke-width="4.664" stroke-linejoin="round"/><polygon points="80.83,155.83 90.73,155.18 100.46,153.25 109.85,150.06 118.74,145.67 123.74,154.33 113.67,159.30 103.04,162.90 92.03,165.09 80.83,165.83" fill="none" stroke="#222" stroke-width="4.664" stroke-linejoin="round"/><polygon points="118.74,145.67 126.99,140.16 134.45,133.62 140.99,126.16 146.50,117.91 155.16,122.91 148.92,132.25 141.52,140.69 133.08,148.09 123.74,154.33" fill="none" stroke="#222" stroke-width="4.664" stroke-linejoin="round"/><polygon points="146.50,117.91 150.89,109.02 154.07,99.63 156.01,89.90 156.66,80.00 166.66,80.00 165.92,91.20 163.73,102.21 160.12,112.85 155.16,122.91" fill="none" stroke="#222" stroke-width="4.664" stroke-linejoin="round"/><polygon points="156.66,80.00 166.66,80.00 166.66,40.00 156.66,40.00" fill="none" stroke="#222" stroke-width="4.664" stroke-linejoin="round"/><polygon points="156.66,40.00 166.66,40.00 166.66,-0.00 156.66,-0.00" fill="none" stroke="#222" stroke-width="4.664" stroke-linejoin="round"/><polygon points="156.66,-0.00 166.66,-0.00 166.66,-40.00 156.66,-40.00" fill="none" stroke="#222" stroke-width="4.664" stroke-linejoin="round"/><polygon points="156.66,-40.00 156.01,-49.90 154.07,-59.63 150.89,-69.02 146.50,-77.91 155.16,-82.91 160.12,-72.85 163.73,-62.21 165.92,-51.20 166.66,-40.00" fill="none" stroke="#222" stroke-width="4.664" stroke-linejoin="round"/><polygon points="146.50,-77.91 140.99,-86.16 134.45,-93.62 126.99,-100.16 118.74,-105.67 123.74,-114.33 133.08,-108.09 141.52,-100.69 148.92,-92.25 155.16,-82.91" fill="none" stroke="#222" stroke-width="4.664" stroke-linejoin="round"/><polygon points="118.74,-105.67 109.85,-110.06 100.46,-113.25 90.73,-115.18 80.83,-115.83 80.83,-125.83 92.03,-125.09 103.04,-122.90 113.67,-119.30 123.74,-114.33" fill="none" stroke="#222" stroke-width="4.664" stroke-linejoin="round"/><polygon points="80.83,-115.83 70.93,-115.18 61.20,-113.25 51.81,-110.06 42.91,-105.67 37.91,-114.33 47.98,-119.30 58.61,-122.90 69.63,-125.09 80.83,-125.83" fill="none" stroke="#222" stroke-width="4.664" stroke-linejoin="round"/><polygon points="42.91,-105.67 34.67,-100.16 27.21,-93.62 20.67,-86.16 15.16,-77.91 6.50,-82.91 12.74,-92.25 20.14,-100.69 28.58,-108.09 37.91,-114.33" fill="none" stroke="#222" stroke-width="4.664" stroke-linejoin="round"/></svg>