<svg xmlns="http://www.w3.org/2000/svg" viewBox="-202.46 -161.63 506.57 484.08" preserveAspectRatio="xMidYMid meet"><rect x="-202.46" y="-161.63" width="506.57" height="484.08" fill="#fafafa"/><polygon points="-5.00,-0.00 5.00,-0.00 5.00,-40.00 -5.00,-40.00" fill="none" stroke="#222" stroke-width="6.079" stroke-linejoin="round"/><polygon points="-5.00,-40.00 -5.13,-44.41 -5.51,-48.80 -6.15,-53.17 -7.04,-57.49 -8.19,-61.75 -9.57,-65.94 -11.20,-70.03 -13.07,-74.03 -15.16,-77.91 -6.50,-82.91 -4.13,-78.52 -2.02,-74.00 0.18,-69.36 2.02,-74.00 4.13,-78.52 6.50,-82.91 15.16,-77.91 13.07,-74.03 11.20,-70.03 9.57,-65.94 8.19,-61.75 7.04,-57.49 6.15,-53.17 5.51,-48.80 5.13,-44.41 5.00,-40.00" fill="none" stroke="#222" stroke-width="6.079" stroke-linejoin="round"/><polygon points="-15.16,-77.91 -20.67,-86.16 -27.21,-93.62 -34.67,-100.16 -42.91,-105.67 -37.91,-114.33 -28.58,-108.09 -20.14,-100.69 -12.74,-92.25 -6.50,-82.91" fill="none" stroke="#222" stroke-width="6.079" stroke-linejoin="round"/><polygon points="-42.91,-105.67 -51.81,-110.06 -61.20,-113.25 -70.93,-115.18 -80.83,-115.83 -80.83,-125.83 -69.63,-125.09 -58.61,-122.90 -47.98,-119.30 -37.91,-114.33" fill="none" stroke="#222" stroke-width="6.079" stroke-linejoin="round"/><polygon points="-80.83,-115.83 -90.73,-115.18 -100.46,-113.25 -109.85,-110.06 -118.74,-105.67 -123.74,-114.33 -113.67,-119.30 -103.04,-122.90 -92.03,-125.09 -80.83,-125.83" fill="none" stroke="#222" stroke-width="6.079" stroke-linejoin="round"/><polygon points="-118.74,-105.67 -126.99,-100.16 -134.45,-93.62 -140.99,-86.16 -146.50,-77.91 -155.16,-82.91 -148.92,-92.25 -141.52,-100.69 -133.08,-108.09 -123.74,-114.33" fill="none" stroke="#222" stroke-width="6.079" stroke-linejoin="round"/><polygon points="-146.50,-77.91 -150.89,-69.02 -154.07,-59.63 -156.01,-49.90 -156.66,-40.00 -166.66,-40.00 -165.92,-51.20 -163.73,-62.21 -160.12,-72.85 -155.16,-82.91" fill="none" stroke="#222" stroke-width="6.079" stroke-linejoin="round"/><polygon points="-156.66,-40.00 -166.66,-40.00 -166.66,-0.00 -156.66,-0.00" fill="none" stroke="#222" stroke-width="6.079" stroke-linejoin="round"/><polygon points="-156.66,-0.00 -166.66,-0.00 -166.66,40.00 -156.66,40.00" fill="none" stroke="#222" stroke-width="6.079" stroke-linejoin="round"/><polygon points="-156.66,40.00 -166.66,40.00 -166.66,80.00 -156.66,80.00" fill="none" stroke="#222" stroke-width="6.079" stroke-linejoin="round"/><polygon points="-156.66,80.00 -156.01,89.90 -154.07,99.63 -150.89,109.02 -146.50,117.91 -155.16,122.91 -160.12,112.85 -163.73,102.21 -165.92,91.20 -166.66,80.00" fill="none" stroke="#222" stroke-width="6.079" stroke-linejoin="round"/><polygon points="-146.50,117.91 -140.99,126.16 -134.45,133.62 -126.99,140.16 -118.74,145.67 -123.74,154.33 -133.08,148.09 -141.52,140.69 -148.92,132.25 -155.16,122.91" fill="none" stroke="#222" stroke-width="6.079" stroke-linejoin="round"/><polygon points="-118.74,145.67 -109.85,150.06 -100.46,153.25 -90.73,155.18 -80.83,155.83 -80.83,165.83 -92.03,165.09 -103.04,162.90 -113.67,159.30 -123.74,154.33" fill="none" stroke="#222" stroke-width="6.079" stroke-linejoin="round"/><polygon points="-80.83,155.83 -70.93,155.18 -61.20,153.25 -51.81,150.06 -42.91,145.67 -37.91,154.33 -47.98,159.30 -58.61,162.90 -69.63,165.09 -80.83,165.83" fill="none" stroke="#222" stroke-width="6.079" stroke-linejoin="round"/><polygon points="-42.91,145.67 -34.67,140.16 -27.21,133.62 -20.67,126.16 -15.16,117.91 -6.50,122.91 -12.74,132.25 -20.14,140.69 -28.58,148.09 -37.91,154.33" fill="none" stroke="#222" stroke-width="6.079" stroke-linejoin="round"/><polygon points="5.00,80.00 5.13,84.41 5.51,88.80 6.15,93.17 7.04,97.49 8.19,101.75 9.57,105.94 11.20,110.03 13.07,114.03 15.16,117.91 6.50,122.91 4.13,118.52 2.02,114.00 -0.18,109.36 -2.02,114.00 -4.13,118.52 -6.50,122.91 -15.16,117.91 -13.07,114.03 -11.20,110.03 -9.57,105.94 -8.19,101.75 -7.04,97.49 -6.15,93.17 -5.51,88.80 -5.13,84.41 -5.00,80.00" fill="none" stroke="#222" stroke-width="6.079" stroke-linejoin="round"/><polygon points="-5.00,80.00 5.00,80.00 5.00,40.00 -5.00,40.00" fill="none" stroke="#222" stroke-width="6.079" stroke-linejoin="round"/><polygon points="-5.00,40.00 5.00,40.00 5.00,-0.00 -5.00,-0.00" fill="none" stroke="#222" stroke-width="6.079" stroke-linejoin="round"/><polygon points="16.66,160.83 16.01,150.93 14.07,141.20 10.89,131.81 6.50,122.91 15.16,117.91 20.12,127.98 23.73,138.61 25.92,149.63 26.66,160.83" fill="none" stroke="#222" stroke-width="6.079" stroke-linejoin="round"/><polygon points="26.66,160.83 16.66,160.83 16.66,200.83 26.66,200.83" fill="none" stroke="#222" stroke-width="6.079" stroke-linejoin="round"/><polygon points="26.66,200.83 27.31,210.73 29.24,220.46 32.43,229.85 36.82,238.74 28.16,243.74 23.19,233.67 19.58,223.04 17.39,212.03 16.66,200.83" fill="none" stroke="#222" stroke-width="6.079" stroke-linejoin="round"/><polygon points="36.82,238.74 42.33,246.99 48.87,254.45 56.33,260.99 64.57,266.50 59.57,275.16 50.24,268.92 41.80,261.52 34.39,253.08 28.16,243.74" fill="none" stroke="#222" stroke-width="6.079" stroke-linejoin="round"/><polygon points="64.57,266.50 73.47,270.89 82.86,274.07 92.59,276.01 102.49,276.66 102.49,286.66 91.28,285.92 80.27,283.73 69.64,280.12 59.57,275.16" fill="none" stroke="#222" stroke-width="6.079" stroke-linejoin="round"/><polygon points="102.49,276.66 102.49,286.66 142.49,286.66 142.49,276.66" fill="none" stroke="#222" stroke-width="6.079" stroke-linejoin="round"/><polygon points="142.49,276.66 142.49,286.66 182.49,286.66 182.49,276.66" fill="none" stroke="#222" stroke-width="6.079" stroke-linejoin="round"/><polygon points="182.49,276.66 192.38,276.01 202.11,274.07 211.51,270.89 220.40,266.50 225.40,275.16 215.33,280.12 204.70,283.73 193.69,285.92 182.49,286.66" fill="none" stroke="#222" stroke-width="6.079" stroke-linejoin="round"/><polygon points="220.40,266.50 228.65,260.99 236.11,254.45 242.65,246.99 248.16,238.74 256.82,243.74 250.58,253.08 243.18,261.52 234.74,268.92 225.40,275.16" fill="none" stroke="#222" stroke-width="6.079" stroke-linejoin="round"/><polygon points="248.16,238.74 252.54,229.85 255.73,220.46 257.67,210.73 258.32,200.83 268.32,200.83 267.58,212.03 265.39,223.04 261.78,233.67 256.82,243.74" fill="none" stroke="#222" stroke-width="6.079" stroke-linejoin="round"/><polygon points="258.32,200.83 268.32,200.83 268.32,160.83 258.32,160.83" fill="none" stroke="#222" stroke-width="6.079" stroke-linejoin="round"/><polygon points="258.32,160.83 257.67,150.93 255.73,141.20 252.54,131.81 248.16,122.91 256.82,117.91 261.78,127.98 265.39,138.61 267.58,149.63 268.32,160.83" fill="none" stroke="#222" stroke-width="6.079" stroke-linejoin="round"/><polygon points="246.66,80.00 247.31,89.90 249.24,99.63 252.43,109.02 256.82,117.91 248.16,122.91 243.19,112.85 239.58,102.21 237.39,91.20 236.66,80.00" fill="none" stroke="#222" stroke-width="6.079" stroke-linejoin="round"/><polygon points="236.66,80.00 246.66,80.00 246.66,40.00 236.66,40.00" fill="none" stroke="#222" stroke-width="6.079" stroke-linejoin="round"/><polygon points="236.66,40.00 246.66,40.00 246.66,-0.00 236.66,-0.00" fill="none" stroke="#222" stroke-width="6.079" stroke-linejoin="round"/><polygon points="236.66,-0.00 246.66,-0.00 246.66,-40.00 236.66,-40.00" fill="none" stroke="#222" stroke-width="6.079" stroke-linejoin="round"/><polygon points="236.66,-40.00 236.01,-49.90 234.07,-59.63 230.89,-69.02 226.50,-77.91 235.16,-82.91 240.12,-72.85 243.73,-62.21 245.92,-51.20 246.66,-40.00" fill="none" stroke="#222" stroke-width="6.079" stroke-linejoin="round"/><polygon points="226.50,-77.91 220.99,-86.16 214.45,-93.62 206.99,-100.16 198.74,-105.67 203.74,-114.33 213.08,-108.09 221.52,-100.69 228.92,-92.25 235.16,-82.91" fill="none" stroke="#222" stroke-width="6.079" stroke-linejoin="round"/><polygon points="198.74,-105.67 189.85,-110.06 180.46,-113.25 170.73,-115.18 160.83,-115.83 160.83,-125.83 172.03,-125.09 183.04,-122.90 193.67,-119.30 203.74,-114.33" fill="none" stroke="#222" stroke-width="6.079" stroke-linejoin="round"/><polygon points="160.83,-115.83 160.83,-125.83 120.83,-125.83 120.83,-115.83" fill="none" stroke="#222" stroke-width="6.079" stroke-linejoin="round"/><polygon points="120.83,-115.83 120.83,-125.83 80.83,-125.83 80.83,-115.83" fill="none" stroke="#222" stroke-width="6.079" stroke-linejoin="round"/><polygon points="80.83,-115.83 70.93,-115.18 61.20,-113.25 51.81,-110.06 42.91,-105.67 37.91,-114.33 47.98,-119.30 58.61,-122.90 69.63,-125.09 80.83,-125.83" fill="none" stroke="#222" stroke-width="6.079" stroke-linejoin="round"/><polygon points="42.91,-105.67 34.67,-100.16 27.21,-93.62 20.67,-86.16 15.16,-77.91 6.50,-82.91 12.74,-92.25 20.14,-100.69 28.58,-108.09 37.91,-114.33" fill="none" stroke="#222" stroke-width="6.079" stroke-linejoin="round"/></svg>