<svg xmlns="http://www.w3.org/2000/svg" viewBox="-194.32 -275.15 388.65 388.65" preserveAspectRatio="xMidYMid meet"><rect x="-194.32" y="-275.15" width="388.65" height="388.65" fill="#fafafa"/><polygon points="-5.00,-0.00 -5.13,-4.41 -5.51,-8.80 -6.15,-13.17 -7.04,-17.49 -8.19,-21.75 -9.57,-25.94 -11.20,-30.03 -13.07,-34.03 -15.16,-37.91 -6.50,-42.91 -4.13,-38.52 -2.02,-34.00 0.18,-29.36 2.02,-34.00 4.13,-38.52 6.50,-42.91 15.16,-37.91 13.07,-34.03 11.20,-30.03 9.57,-25.94 8.19,-21.75 7.04,-17.49 6.15,-13.17 5.51,-8.80 5.13,-4.41 5.00,-0.00" fill="none" stroke="#222" stroke-width="4.664" stroke-linejoin="round"/><polygon points="-15.16,37.91 -10.77,29.02 -7.58,19.63 -5.65,9.90 -5.00,-0.00 5.00,0.00 4.27,11.20 2.08,22.21 -1.53,32.85 -6.50,42.91" fill="none" stroke="#222" stroke-width="4.664" stroke-linejoin="round"/><polygon points="-42.91,65.67 -34.67,60.16 -27.21,53.62 -20.67,46.16 -15.16,37.91 -6.50,42.91 -12.74,52.25 -20.14,60.69 -28.58,68.09 -37.91,74.33" fill="none" stroke="#222" stroke-width="4.664" stroke-linejoin="round"/><polygon points="-80.83,75.83 -70.93,75.18 -61.20,73.25 -51.81,70.06 -42.91,65.67 -37.91,74.33 -47.98,79.30 -58.61,82.90 -69.63,85.09 -80.83,85.83" fill="none" stroke="#222" stroke-width="4.664" stroke-linejoin="round"/><polygon points="-118.74,65.67 -109.85,70.06 -100.46,73.25 -90.73,75.18 -80.83,75.83 -80.83,85.83 -92.03,85.09 -103.04,82.90 -113.67,79.30 -123.74,74.33" fill="none" stroke="#222" stroke-width="4.664" stroke-linejoin="round"/><polygon points="-146.50,37.91 -140.99,46.16 -134.45,53.62 -126.99,60.16 -118.74,65.67 -123.74,74.33 -133.08,68.09 -141.52,60.69 -148.92,52.25 -155.16,42.91" fill="none" stroke="#222" stroke-width="4.664" stroke-linejoin="round"/><polygon points="-156.66,-0.00 -156.01,9.90 -154.07,19.63 -150.89,29.02 -146.50,37.91 -155.16,42.91 -160.12,32.85 -163.73,22.21 -165.92,11.20 -166.66,-0.00" fill="none" stroke="#222" stroke-width="4.664" stroke-linejoin="round"/><polygon points="-146.50,-37.91 -150.89,-29.02 -154.07,-19.63 -156.01,-9.90 -156.66,-0.00 -166.66,-0.00 -165.92,-11.20 -163.73,-22.21 -160.12,-32.85 -155.16,-42.91" fill="none" stroke="#222" stroke-width="4.664" stroke-linejoin="round"/><polygon points="-118.74,-65.67 -126.99,-60.16 -134.45,-53.62 -140.99,-46.16 -146.50,-37.91 -155.16,-42.91 -148.92,-52.25 -141.52,-60.69 -133.08,-68.09 -123.74,-74.33" fill="none" stroke="#222" stroke-width="4.664" stroke-linejoin="round"/><polygon points="-80.83,-75.83 -90.73,-75.18 -100.46,-73.25 -109.85,-70.06 -118.74,-65.67 -123.74,-74.33 -113.67,-79.30 -103.04,-82.90 -92.03,-85.09 -80.83,-85.83" fill="none" stroke="#222" stroke-width="4.664" stroke-linejoin="round"/><polygon points="-42.91,-65.67 -51.81,-70.06 -61.20,-73.25 -70.93,-75.18 -80.83,-75.83 -80.83,-85.83 -69.63,-85.09 -58.61,-82.90 -47.98,-79.30 -37.91,-74.33" fill="none" stroke="#222" stroke-width="4.664" stroke-linejoin="round"/><polygon points="-15.16,-37.91 -20.67,-46.16 -27.21,-53.62 -34.67,-60.16 -42.91,-65.67 -37.91,-74.33 -28.58,-68.09 -20.14,-60.69 -12.74,-52.25 -6.50,-42.91" fill="none" stroke="#222" stroke-width="4.664" stroke-linejoin="round"/><polygon points="6.50,-42.91 8.59,-46.80 10.46,-50.79 12.09,-54.89 13.47,-59.08 14.61,-63.34 15.51,-67.66 16.15,-72.03 16.53,-76.42 16.66,-80.83 26.66,-80.83 26.51,-75.84 26.08,-70.86 25.66,-65.75 29.58,-68.85 33.67,-71.71 37.91,-74.33 42.91,-65.67 39.16,-63.35 35.55,-60.82 32.09,-58.09 28.79,-55.16 25.67,-52.04 22.74,-48.74 20.00,-45.28 17.47,-41.67 15.16,-37.91" fill="none" stroke="#222" stroke-width="4.664" stroke-linejoin="round"/><polygon points="16.66,-80.83 16.01,-90.73 14.07,-100.46 10.89,-109.85 6.50,-118.74 15.16,-123.74 20.12,-113.67 23.73,-103.04 25.92,-92.03 26.66,-80.83" fill="none" stroke="#222" stroke-width="4.664" stroke-linejoin="round"/><polygon points="5.00,-161.66 5.65,-151.76 7.58,-142.03 10.77,-132.64 15.16,-123.74 6.50,-118.74 1.53,-128.81 -2.08,-139.44 -4.27,-150.46 -5.00,-161.66" fill="none" stroke="#222" stroke-width="4.664" stroke-linejoin="round"/><polygon points="15.16,-199.57 10.77,-190.68 7.58,-181.28 5.65,-171.56 5.00,-161.66 -5.00,-161.66 -4.27,-172.86 -2.08,-183.87 1.53,-194.50 6.50,-204.57" fill="none" stroke="#222" stroke-width="4.664" stroke-linejoin="round"/><polygon points="42.91,-227.33 34.67,-221.82 27.21,-215.28 20.67,-207.82 15.16,-199.57 6.50,-204.57 12.74,-213.91 20.14,-222.35 28.58,-229.75 37.91,-235.99" fill="none" stroke="#222" stroke-width="4.664" stroke-linejoin="round"/><polygon points="80.83,-237.49 70.93,-236.84 61.20,-234.90 51.81,-231.71 42.91,-227.33 37.91,-235.99 47.98,-240.95 58.61,-244.56 69.63,-246.75 80.83,-247.49" fill="none" stroke="#222" stroke-width="4.664" stroke-linejoin="round"/><polygon points="118.74,-227.33 109.85,-231.71 100.46,-234.90 90.73,-236.84 80.83,-237.49 80.83,-247.49 92.03,-246.75 103.04,-244.56 113.67,-240.95 123.74,-235.99" fill="none" stroke="#222" stroke-width="4.664" stroke-linejoin="round"/><polygon points="146.50,-199.57 140.99,-207.82 134.45,-215.28 126.99,-221.82 118.74,-227.33 123.74,-235.99 133.08,-229.75 141.52,-222.35 148.92,-213.91 155.16,-204.57" fill="none" stroke="#222" stroke-width="4.664" stroke-linejoin="round"/><polygon points="156.66,-161.66 156.01,-171.56 154.07,-181.28 150.89,-190.68 146.50,-199.57 155.16,-204.57 160.12,-194.50 163.73,-183.87 165.92,-172.86 166.66,-161.66" fill="none" stroke="#222" stroke-width="4.664" stroke-linejoin="round"/><polygon points="146.50,-123.74 150.89,-132.64 154.07,-142.03 156.01,-151.76 156.66,-161.66 166.66,-161.66 165.92,-150.46 163.73,-139.44 160.12,-128.81 155.16,-118.74" fill="none" stroke="#222" stroke-width="4.664" stroke-linejoin="round"/><polygon points="118.74,-95.99 126.99,-101.50 134.45,-108.04 140.99,-115.50 146.50,-123.74 155.16,-118.74 148.92,-109.41 141.52,-100.97 133.08,-93.57 123.74,-87.33" fill="none" stroke="#222" stroke-width="4.664" stroke-linejoin="round"/><polygon points="80.83,-85.83 90.73,-86.48 100.46,-88.41 109.85,-91.60 118.74,-95.99 123.74,-87.33 113.67,-82.36 103.04,-78.75 92.03,-76.56 80.83,-75.83" fill="none" stroke="#222" stroke-width="4.664" stroke-linejoin="round"/><polygon points="80.83,-75.83 70.93,-75.18 61.20,-73.25 51.81,-70.06 42.91,-65.67 37.91,-74.33 47.98,-79.30 58.61,-82.90 69.63,-85.09 80.83,-85.83" fill="none" stroke="#222" stroke-width="4.664" stroke-linejoin="round"/></svg>