<svg xmlns="http://www.w3.org/2000/svg" viewBox="-19.73 -100.56 201.12 201.12" preserveAspectRatio="xMidYMid meet"><rect x="-19.73" y="-100.56" width="201.12" height="201.12" fill="#fafafa"/><polygon points="15.16,-37.91 10.77,-29.02 7.58,-19.63 5.65,-9.90 5.00,0.00 -5.00,0.00 -4.27,-11.20 -2.08,-22.21 1.53,-32.85 6.50,-42.91" fill="none" stroke="#222" stroke-width="2.413" stroke-linejoin="round"/><polygon points="42.91,-65.67 34.67,-60.16 27.21,-53.62 20.67,-46.16 15.16,-37.91 6.50,-42.91 12.74,-52.25 20.14,-60.69 28.58,-68.09 37.91,-74.33" fill="none" stroke="#222" stroke-width="2.413" stroke-linejoin="round"/><polygon points="80.83,-75.83 70.93,-75.18 61.20,-73.25 51.81,-70.06 42.91,-65.67 37.91,-74.33 47.98,-79.30 58.61,-82.90 69.63,-85.09 80.83,-85.83" fill="none" stroke="#222" stroke-width="2.413" stroke-linejoin="round"/><polygon points="118.74,-65.67 109.85,-70.06 100.46,-73.25 90.73,-75.18 80.83,-75.83 80.83,-85.83 92.03,-85.09 103.04,-82.90 113.67,-79.30 123.74,-74.33" fill="none" stroke="#222" stroke-width="2.413" stroke-linejoin="round"/><polygon points="146.50,-37.91 140.99,-46.16 134.45,-53.62 126.99,-60.16 118.74,-65.67 123.74,-74.33 133.08,-68.09 141.52,-60.69 148.92,-52.25 155.16,-42.91" fill="none" stroke="#222" stroke-width="2.413" stroke-linejoin="round"/><polygon points="156.66,0.00 156.01,-9.90 154.07,-19.63 150.89,-29.02 146.50,-37.91 155.16,-42.91 160.12,-32.85 163.73,-22.21 165.92,-11.20 166.66,0.00" fill="none" stroke="#222" stroke-width="2.413" stroke-linejoin="round"/><polygon points="146.50,37.91 150.89,29.02 154.07,19.63 156.01,9.90 156.66,0.00 166.66,0.00 165.92,11.20 163.73,22.21 160.12,32.85 155.16,42.91" fill="none" stroke="#222" stroke-width="2.413" stroke-linejoin="round"/><polygon points="118.74,65.67 126.99,60.16 134.45,53.62 140.99,46.16 146.50,37.91 155.16,42.91 148.92,52.25 141.52,60.69 133.08,68.09 123.74,74.33" fill="none" stroke="#222" stroke-width="2.413" stroke-linejoin="round"/><polygon points="80.83,75.83 90.73,75.18 100.46,73.25 109.85,70.06 118.74,65.67 123.74,74.33 113.67,79.30 103.04,82.90 92.03,85.09 80.83,85.83" fill="none" stroke="#222" stroke-width="2.413" stroke-linejoin="round"/><polygon points="42.91,65.67 51.81,70.06 61.20,73.25 70.93,75.18 80.83,75.83 80.83,85.83 69.63,85.09 58.61,82.90 47.98,79.30 37.91,74.33" fill="none" stroke="#222" stroke-width="2.413" stroke-linejoin="round"/><polygon points="15.16,37.91 20.67,46.16 27.21,53.62 34.67,60.16 42.91,65.67 37.91,74.33 28.58,68.09 20.14,60.69 12.74,52.25 6.50,42.91" fill="none" stroke="#222" stroke-width="2.413" stroke-linejoin="round"/><polygon points="5.00,-0.00 5.65,9.90 7.58,19.63 10.77,29.02 15.16,37.91 6.50,42.91 1.53,32.85 -2.08,22.21 -4.27,11.20 -5.00,-0.00" fill="none" stroke="#222" stroke-width="2.413" stroke-linejoin="round"/></svg>