<svg xmlns="http://www.w3.org/2000/svg" viewBox="-123.23 -202.45 464.02 482.41" preserveAspectRatio="xMidYMid meet"><rect x="-123.23" y="-202.45" width="464.02" height="482.41" fill="#fafafa"/><polygon points="-5.00,-0.00 5.00,-0.00 5.00,-40.00 -5.00,-40.00" fill="none" stroke="#222" stroke-width="5.789" stroke-linejoin="round"/><polygon points="-14.82,5.67 -19.82,14.33 -5.00,22.89 -5.00,40.00 5.00,40.00 5.00,28.66 14.82,34.33 19.82,25.67 5.00,17.11 5.00,-0.00 -5.00,-0.00 -5.00,11.34" fill="none" stroke="#222" stroke-width="5.789" stroke-linejoin="round"/><polygon points="5.00,40.00 -5.00,40.00 -5.00,80.00 5.00,80.00" fill="none" stroke="#222" stroke-width="5.789" stroke-linejoin="round"/><polygon points="5.00,80.00 -5.00,80.00 -5.00,120.00 5.00,120.00" fill="none" stroke="#222" stroke-width="5.789" stroke-linejoin="round"/><polygon points="5.00,120.00 -5.00,120.00 -5.00,160.00 5.00,160.00" fill="none" stroke="#222" stroke-width="5.789" stroke-linejoin="round"/><polygon points="5.00,160.00 5.65,169.90 7.58,179.63 10.77,189.02 15.16,197.91 6.50,202.91 1.53,192.85 -2.08,182.21 -4.27,171.20 -5.00,160.00" fill="none" stroke="#222" stroke-width="5.789" stroke-linejoin="round"/><polygon points="15.16,197.91 20.67,206.16 27.21,213.62 34.67,220.16 42.91,225.67 37.91,234.33 28.58,228.09 20.14,220.69 12.74,212.25 6.50,202.91" fill="none" stroke="#222" stroke-width="5.789" stroke-linejoin="round"/><polygon points="42.91,225.67 51.81,230.06 61.20,233.25 70.93,235.18 80.83,235.83 80.83,245.83 69.63,245.09 58.61,242.90 47.98,239.30 37.91,234.33" fill="none" stroke="#222" stroke-width="5.789" stroke-linejoin="round"/><polygon points="80.83,235.83 90.73,235.18 100.46,233.25 109.85,230.06 118.74,225.67 123.74,234.33 113.67,239.30 103.04,242.90 92.03,245.09 80.83,245.83" fill="none" stroke="#222" stroke-width="5.789" stroke-linejoin="round"/><polygon points="118.74,225.67 126.99,220.16 134.45,213.62 140.99,206.16 146.50,197.91 155.16,202.91 148.92,212.25 141.52,220.69 133.08,228.09 123.74,234.33" fill="none" stroke="#222" stroke-width="5.789" stroke-linejoin="round"/><polygon points="146.50,197.91 150.89,189.02 154.07,179.63 156.01,169.90 156.66,160.00 166.66,160.00 165.92,171.20 163.73,182.21 160.12,192.85 155.16,202.91" fill="none" stroke="#222" stroke-width="5.789" stroke-linejoin="round"/><polygon points="156.66,160.00 156.01,150.10 154.07,140.37 150.89,130.98 146.50,122.09 155.16,117.09 160.12,127.15 163.73,137.79 165.92,148.80 166.66,160.00" fill="none" stroke="#222" stroke-width="5.789" stroke-linejoin="round"/><polygon points="146.50,122.09 144.18,118.33 141.65,114.72 138.92,111.26 135.99,107.96 132.87,104.84 129.57,101.91 126.11,99.18 122.50,96.65 118.74,94.33 123.74,85.67 127.99,88.29 132.08,91.15 136.30,94.08 135.58,89.14 135.15,84.16 135.00,79.17 145.00,79.17 145.13,83.58 145.51,87.97 146.15,92.34 147.04,96.66 148.19,100.92 149.57,105.11 151.20,109.21 153.07,113.20 155.16,117.09" fill="none" stroke="#222" stroke-width="5.789" stroke-linejoin="round"/><polygon points="118.74,94.33 123.74,85.67 89.10,65.67 84.10,74.33" fill="none" stroke="#222" stroke-width="5.789" stroke-linejoin="round"/><polygon points="84.10,74.33 89.10,65.67 54.46,45.67 49.46,54.33" fill="none" stroke="#222" stroke-width="5.789" stroke-linejoin="round"/><polygon points="49.46,54.33 54.46,45.67 19.82,25.67 14.82,34.33" fill="none" stroke="#222" stroke-width="5.789" stroke-linejoin="round"/><polygon points="155.16,41.26 150.77,50.15 147.58,59.54 145.65,69.27 145.00,79.17 135.00,79.17 135.73,67.97 137.92,56.96 141.53,46.33 146.50,36.26" fill="none" stroke="#222" stroke-width="5.789" stroke-linejoin="round"/><polygon points="182.91,13.50 174.67,19.01 167.21,25.55 160.67,33.01 155.16,41.26 146.50,36.26 152.74,26.92 160.14,18.48 168.58,11.08 177.91,4.84" fill="none" stroke="#222" stroke-width="5.789" stroke-linejoin="round"/><polygon points="220.83,3.34 210.93,3.99 201.20,5.93 191.81,9.11 182.91,13.50 177.91,4.84 187.98,-0.12 198.61,-3.73 209.63,-5.92 220.83,-6.66" fill="none" stroke="#222" stroke-width="5.789" stroke-linejoin="round"/><polygon points="220.83,-6.66 225.24,-6.79 229.63,-7.17 234.00,-7.81 238.32,-8.70 242.58,-9.84 246.76,-11.23 250.86,-12.86 254.86,-14.72 258.74,-16.82 263.74,-8.16 259.35,-5.79 254.82,-3.68 250.18,-1.48 254.82,0.36 259.35,2.47 263.74,4.84 258.74,13.50 254.86,11.41 250.86,9.54 246.76,7.91 242.58,6.53 238.32,5.39 234.00,4.49 229.63,3.85 225.24,3.47 220.83,3.34" fill="none" stroke="#222" stroke-width="5.789" stroke-linejoin="round"/><polygon points="258.74,-16.82 266.99,-22.33 274.45,-28.87 280.99,-36.33 286.50,-44.57 295.16,-39.57 288.92,-30.24 281.52,-21.80 273.08,-14.39 263.74,-8.16" fill="none" stroke="#222" stroke-width="5.789" stroke-linejoin="round"/><polygon points="286.50,-44.57 290.89,-53.47 294.07,-62.86 296.01,-72.59 296.66,-82.49 306.66,-82.49 305.92,-71.28 303.73,-60.27 300.12,-49.64 295.16,-39.57" fill="none" stroke="#222" stroke-width="5.789" stroke-linejoin="round"/><polygon points="296.66,-82.49 296.01,-92.38 294.07,-102.11 290.89,-111.51 286.50,-120.40 295.16,-125.40 300.12,-115.33 303.73,-104.70 305.92,-93.69 306.66,-82.49" fill="none" stroke="#222" stroke-width="5.789" stroke-linejoin="round"/><polygon points="286.50,-120.40 280.99,-128.65 274.45,-136.11 266.99,-142.65 258.74,-148.16 263.74,-156.82 273.08,-150.58 281.52,-143.18 288.92,-134.74 295.16,-125.40" fill="none" stroke="#222" stroke-width="5.789" stroke-linejoin="round"/><polygon points="258.74,-148.16 249.85,-152.54 240.46,-155.73 230.73,-157.67 220.83,-158.32 220.83,-168.32 232.03,-167.58 243.04,-165.39 253.67,-161.78 263.74,-156.82" fill="none" stroke="#222" stroke-width="5.789" stroke-linejoin="round"/><polygon points="220.83,-158.32 220.83,-168.32 180.83,-168.32 180.83,-158.32" fill="none" stroke="#222" stroke-width="5.789" stroke-linejoin="round"/><polygon points="180.83,-158.32 180.83,-168.32 140.83,-168.32 140.83,-158.32" fill="none" stroke="#222" stroke-width="5.789" stroke-linejoin="round"/><polygon points="140.83,-158.32 140.83,-168.32 100.83,-168.32 100.83,-158.32" fill="none" stroke="#222" stroke-width="5.789" stroke-linejoin="round"/><polygon points="100.83,-158.32 90.93,-157.67 81.20,-155.73 71.81,-152.54 62.91,-148.16 57.91,-156.82 67.98,-161.78 78.61,-165.39 89.63,-167.58 100.83,-168.32" fill="none" stroke="#222" stroke-width="5.789" stroke-linejoin="round"/><polygon points="-5.00,-40.00 5.00,-40.00 5.00,-57.11 19.82,-65.67 14.82,-74.33 5.00,-68.66 5.00,-80.00 -5.00,-80.00 -5.00,-62.89 -19.82,-54.33 -14.82,-45.67 -5.00,-51.34" fill="none" stroke="#222" stroke-width="5.789" stroke-linejoin="round"/><polygon points="-14.82,-45.67 -19.82,-54.33 -54.46,-34.33 -49.46,-25.67" fill="none" stroke="#222" stroke-width="5.789" stroke-linejoin="round"/><polygon points="-49.46,-25.67 -54.46,-34.33 -69.28,-25.77 -84.10,-34.33 -89.10,-25.67 -79.28,-20.00 -89.10,-14.33 -84.10,-5.67 -69.28,-14.23 -54.46,-5.67 -49.46,-14.33 -59.28,-20.00" fill="none" stroke="#222" stroke-width="5.789" stroke-linejoin="round"/><polygon points="-49.46,-14.33 -54.46,-5.67 -19.82,14.33 -14.82,5.67" fill="none" stroke="#222" stroke-width="5.789" stroke-linejoin="round"/></svg>