<svg xmlns="http://www.w3.org/2000/svg" viewBox="-50 -50 100 100" preserveAspectRatio="xMidYMid meet"><g fill="none" stroke="#6d4c41" stroke-width="34" stroke-dasharray="5 6"><line x1="0" y1="48" x2="0" y2="20"/><path d="M 0 20 A 60 60 0 0 0 -42 -22"/><path d="M 0 20 A 60 60 0 0 1 42 -22"/></g><g fill="none" stroke="#9e9e9e" stroke-width="22"><line x1="0" y1="48" x2="0" y2="20"/><path d="M 0 20 A 60 60 0 0 0 -42 -22"/><path d="M 0 20 A 60 60 0 0 1 42 -22"/></g><g fill="none" stroke="#37474f" stroke-width="1.6"><line x1="-7" y1="48" x2="-7" y2="20"/><line x1="7"  y1="48" x2="7"  y2="20"/><path d="M -7 20 A 53 53 0 0 0 -44 -15"/><path d="M 7  20 A 67 67 0 0 0 -40 -29"/><path d="M -7 20 A 67 67 0 0 1 40 -29"/><path d="M 7  20 A 53 53 0 0 1 44 -15"/></g></svg>